<svg width="231" height="313" viewBox="0 0 231 313" fill="none" xmlns="http://www.w3.org/2000/svg">
<g clip-path="url(#clip0_134_287)">
<path fill-rule="evenodd" clip-rule="evenodd" d="M29.1107 108.672C32.4152 125.921 36.8212 134.075 37.2933 143.641C37.7653 153.677 22.8164 163.556 15.7354 166.693C24.5473 193.037 43.1155 190.058 55.0746 191.312C67.1911 192.41 61.2115 210.444 93.155 209.032L108.419 100.047L29.1107 108.672ZM126.357 111.181L137.844 209.032C169.788 210.444 163.966 192.41 175.925 191.312C188.041 190.215 206.452 193.037 215.264 166.693C208.026 163.556 193.234 153.677 193.706 143.641C194.178 134.075 198.112 126.705 201.574 111.337L182.691 103.654L126.357 111.181Z" fill="#2E1E11"/>
<path fill-rule="evenodd" clip-rule="evenodd" d="M53.9727 122.158C53.658 119.178 41.5416 115.729 37.4503 125.451C33.359 135.173 40.7548 148.973 54.6022 150.071C68.4496 151.168 64.3583 148.659 64.3583 148.659L53.9727 122.158Z" fill="#E4AE7C"/>
<path fill-rule="evenodd" clip-rule="evenodd" d="M177.341 122.158C177.655 119.178 189.772 115.729 193.863 125.451C197.954 135.173 190.559 148.973 176.711 150.071C162.864 151.168 166.955 148.659 166.955 148.659L177.341 122.158Z" fill="#E4AE7C"/>
<path fill-rule="evenodd" clip-rule="evenodd" d="M115.5 311.902H3.77646C2.5176 254.979 46.4202 221.891 84.1859 209.66C87.1756 193.821 86.3889 173.122 86.3889 173.122H115.343H144.296C144.296 173.122 143.509 193.665 146.499 209.66C184.265 222.048 228.167 254.979 226.909 311.902H115.5Z" fill="#E4AE7C"/>
<path fill-rule="evenodd" clip-rule="evenodd" d="M144.61 173.122C144.61 173.122 144.453 177.199 144.61 183.158C133.596 210.757 99.2917 213.894 86.7031 184.256C86.8605 177.67 86.7031 173.122 86.7031 173.122C105.901 173.122 125.256 173.122 144.61 173.122Z" fill="#D67F54"/>
<path fill-rule="evenodd" clip-rule="evenodd" d="M231 311.902C232.259 255.763 188.041 222.832 149.331 210.13C141.621 227.223 89.6932 227.223 81.9827 209.974C43.2729 222.519 -1.25913 255.606 -0.000275772 311.902H231Z" fill="#AF2A3A"/>
<path fill-rule="evenodd" clip-rule="evenodd" d="M229.741 292.928C227.853 281.951 224.076 271.915 219.041 262.977H12.1163C7.08086 271.915 3.3043 281.794 1.41602 292.928H229.741Z" fill="#39271F"/>
<path fill-rule="evenodd" clip-rule="evenodd" d="M192.762 233.182C179.386 222.519 163.966 214.835 149.331 210.13C141.621 227.223 89.693 227.223 81.9825 209.974C67.3483 214.678 51.77 222.362 38.2373 233.182H192.762Z" fill="#39271F"/>
<path fill-rule="evenodd" clip-rule="evenodd" d="M115.5 187.706C43.4302 189.431 7.08076 12.3881 115.5 16.9357C223.919 12.3881 187.569 189.431 115.5 187.706Z" fill="#E4AE7C"/>
<path fill-rule="evenodd" clip-rule="evenodd" d="M91.267 102.243C94.0994 104.281 94.8862 108.359 92.6832 111.181C90.6376 114.004 86.5463 114.631 83.7139 112.593C80.8814 110.554 80.0947 106.477 82.2977 103.654C84.3433 100.831 88.4346 100.204 91.267 102.243Z" fill="#20201E"/>
<path fill-rule="evenodd" clip-rule="evenodd" d="M140.205 102.243C137.373 104.281 136.586 108.359 138.789 111.181C140.835 114.004 144.926 114.631 147.758 112.593C150.591 110.554 151.377 106.477 149.174 103.654C147.129 100.831 143.038 100.204 140.205 102.243Z" fill="#20201E"/>
<path fill-rule="evenodd" clip-rule="evenodd" d="M83.3994 125.607C87.0186 128.43 87.1759 132.507 83.7141 134.859C80.2522 137.054 74.43 136.741 70.8108 133.918C67.1916 131.096 67.0343 127.018 70.4961 124.666C73.958 122.314 79.7802 122.784 83.3994 125.607Z" fill="#DA9077"/>
<path fill-rule="evenodd" clip-rule="evenodd" d="M148.073 125.607C144.453 128.43 144.296 132.507 147.758 134.859C151.22 137.054 157.042 136.741 160.661 133.918C164.28 131.096 164.438 127.018 160.976 124.666C157.514 122.314 151.692 122.784 148.073 125.607Z" fill="#DA9077"/>
<path fill-rule="evenodd" clip-rule="evenodd" d="M94.0994 84.8356C93.7847 84.6788 93.6274 84.6788 93.3127 84.5219C90.4802 83.5811 88.1199 83.2674 85.1301 83.4242C82.1403 83.7379 79.9373 84.3651 77.4196 85.7765C76.3181 86.5605 71.7548 90.1672 73.0136 91.5786C73.4857 91.7354 78.049 89.3832 79.4652 88.9127C81.5109 88.2855 83.2418 88.1287 85.4448 88.1287C87.4904 88.2855 89.064 88.4423 90.9523 89.2264C90.9523 89.2264 91.267 89.3832 91.4244 89.3832C95.2009 91.2649 94.8862 92.3626 97.4039 90.6377C101.338 88.7559 97.2466 86.4037 94.0994 84.8356Z" fill="#3F2716"/>
<path fill-rule="evenodd" clip-rule="evenodd" d="M136.901 84.8356C137.215 84.6788 137.373 84.6788 137.687 84.5219C140.52 83.5811 142.88 83.2674 145.87 83.4242C148.86 83.7379 151.063 84.3651 153.581 85.7765C154.682 86.5605 159.245 90.1672 157.987 91.5786C157.514 91.7354 152.951 89.3832 151.535 88.9127C149.489 88.2855 147.758 88.1287 145.555 88.1287C143.51 88.2855 141.936 88.4423 140.048 89.2264C140.048 89.2264 139.733 89.3832 139.576 89.3832C135.799 91.2649 136.114 92.3626 133.596 90.6377C129.662 88.7559 133.911 86.4037 136.901 84.8356Z" fill="#3F2716"/>
<path fill-rule="evenodd" clip-rule="evenodd" d="M96.7744 140.662C103.383 140.505 109.992 140.505 116.601 140.505C123.21 140.505 129.819 140.505 136.428 140.662C136.428 151.011 126.2 154.775 116.601 154.775C107.16 154.775 96.7744 151.011 96.7744 140.662Z" fill="white"/>
<path fill-rule="evenodd" clip-rule="evenodd" d="M112.195 160.891C111.88 160.734 111.723 160.264 111.88 159.793C112.037 159.48 112.51 159.323 112.982 159.48C114.083 160.107 115.499 160.42 116.758 160.42C118.174 160.42 119.433 160.107 120.535 159.48C120.849 159.323 121.322 159.323 121.636 159.793C121.794 160.107 121.794 160.577 121.322 160.891C120.063 161.675 118.332 161.989 116.758 161.989C115.185 162.145 113.454 161.675 112.195 160.891Z" fill="#D67F54"/>
<path fill-rule="evenodd" clip-rule="evenodd" d="M114.871 126.392C114.399 126.392 114.084 126.078 114.084 125.608C114.084 125.138 114.399 124.824 114.871 124.824C116.759 124.824 118.962 124.824 120.693 124.51C122.109 124.197 123.211 123.883 123.211 123.256C123.211 121.06 121.008 107.104 120.85 107.104C120.85 106.634 121.008 106.32 121.48 106.163C121.952 106.163 122.267 106.32 122.424 106.79C122.424 106.79 124.784 120.904 124.784 123.256C124.784 124.824 123.211 125.765 121.008 126.078C119.119 126.392 116.916 126.392 114.871 126.392Z" fill="#D67F54"/>
<path fill-rule="evenodd" clip-rule="evenodd" d="M189.457 133.134C189.457 133.605 189.143 133.918 188.671 133.918C188.198 133.918 187.884 133.605 187.884 133.134C187.884 130.782 187.412 129.214 186.782 128.43C186.31 127.959 185.838 127.646 185.366 127.646C184.737 127.646 183.95 127.803 183.163 128.273C181.117 129.371 178.914 131.88 177.813 134.546C177.183 135.8 176.711 137.211 176.554 138.152C177.813 137.368 179.072 137.055 180.173 137.055C180.803 137.055 181.432 137.368 181.904 137.682C182.376 137.995 182.691 138.466 183.006 139.093C183.32 140.191 183.006 141.602 181.904 143.327C181.589 143.641 181.117 143.798 180.803 143.484C180.488 143.17 180.331 142.7 180.645 142.386C181.432 141.132 181.747 140.191 181.589 139.407C181.432 139.093 181.275 138.936 181.117 138.78C180.803 138.623 180.488 138.466 180.173 138.466C179.229 138.309 177.97 138.78 176.869 139.877C176.554 140.191 176.397 140.348 176.082 140.348C175.453 140.504 175.138 140.191 174.98 139.564C174.98 139.407 174.98 139.093 174.98 138.623C175.138 137.525 175.767 135.486 176.711 133.762C177.97 130.782 180.331 128.116 182.691 126.705C183.635 126.078 184.737 125.764 185.681 125.921C186.625 125.921 187.569 126.391 188.356 127.175C188.828 128.43 189.457 130.312 189.457 133.134Z" fill="#D67F54"/>
<path fill-rule="evenodd" clip-rule="evenodd" d="M43.1156 133.134C43.1156 133.605 42.8008 133.918 42.3288 133.918C41.8567 133.918 41.542 133.605 41.542 133.134C41.542 130.312 42.0141 128.587 42.9582 127.489C43.745 126.548 44.5318 126.234 45.6333 126.234C46.5774 126.234 47.5216 126.548 48.6231 127.018C50.9834 128.273 53.3438 131.096 54.6026 134.075C55.3894 135.957 56.0188 137.839 56.3335 138.936C56.3335 139.25 56.3335 139.564 56.3335 139.877C56.1762 140.504 55.8615 140.818 55.232 140.661C54.9173 140.661 54.76 140.504 54.4453 140.191C53.3438 139.093 52.0849 138.623 51.1408 138.779C50.8261 138.779 50.5113 138.936 50.1966 139.093C50.0393 139.25 49.8819 139.407 49.7246 139.72C49.5672 140.348 49.7246 141.288 50.6687 142.7C50.9834 143.013 50.8261 143.484 50.5113 143.797C50.1966 144.111 49.7246 143.954 49.4098 143.641C48.3083 141.916 47.9936 140.504 48.3083 139.407C48.4657 138.779 48.9378 138.309 49.4098 137.995C49.8819 137.682 50.5113 137.525 51.1408 137.368C52.2423 137.211 53.6585 137.525 54.76 138.466C54.4453 137.525 53.9732 136.114 53.5011 134.859C52.3996 132.193 50.1966 129.684 48.151 128.587C47.3642 128.116 46.7348 127.959 45.948 127.959C45.3186 127.959 44.8465 128.273 44.5318 128.743C43.5876 129.214 43.1156 130.782 43.1156 133.134Z" fill="#D67F54"/>
<path fill-rule="evenodd" clip-rule="evenodd" d="M34.1466 279.599C34.1466 278.971 34.6187 278.501 35.2481 278.501C35.8775 278.501 36.3496 278.971 36.3496 279.599L36.1923 311.902C36.1923 312.53 35.7202 313 35.0908 313C34.4613 313 33.9893 312.53 33.9893 311.902L34.1466 279.599Z" fill="#27170C"/>
<path fill-rule="evenodd" clip-rule="evenodd" d="M194.965 279.599C194.965 278.971 195.437 278.501 196.067 278.501C196.696 278.501 197.168 278.971 197.168 279.599L196.853 311.745C196.853 312.373 196.381 312.843 195.752 312.843C195.122 312.843 194.65 312.373 194.65 311.745L194.965 279.599Z" fill="#27170C"/>
<path fill-rule="evenodd" clip-rule="evenodd" d="M46.8916 105.849C47.9931 116.199 56.9625 131.724 58.8507 136.271C60.739 140.819 59.0081 121.688 59.0081 97.2246C59.0081 72.7617 46.8916 105.849 46.8916 105.849Z" fill="#7E583E"/>
<path fill-rule="evenodd" clip-rule="evenodd" d="M184.422 105.849C183.321 116.199 174.351 131.724 172.463 136.271C170.575 140.819 172.306 121.688 172.306 97.2246C172.306 72.7617 184.422 105.849 184.422 105.849Z" fill="#7E583E"/>
<path fill-rule="evenodd" clip-rule="evenodd" d="M105.586 37.3215C96.9314 37.3215 88.7488 53.4733 87.962 66.9593C85.287 114.944 39.1814 98.4788 33.9886 128.117C32.1003 122.628 27.3796 103.81 26.9075 101.458C23.131 83.8951 46.4198 63.6662 50.8258 44.8485C55.2318 25.7173 66.2468 10.82 79.9368 4.07701C91.8959 -1.7251 105.271 -1.56828 111.723 5.64515C113.769 7.21328 115.657 9.09505 115.657 9.09505C115.657 9.09505 117.23 7.52691 119.119 5.95877C125.413 -1.88191 139.26 -2.19554 151.692 4.07701C165.067 10.9768 176.082 26.0309 180.488 44.8485C184.894 63.6662 208.183 83.8951 204.406 101.458C203.934 103.81 199.213 122.471 197.325 128.117C192.132 98.322 150.747 113.219 145.712 65.3911C143.981 48.7689 136.428 40.7714 129.032 39.3601C128.245 39.2033 122.108 37.3215 116.444 46.1031C114.87 48.6121 113.926 37.4783 105.586 37.3215Z" fill="#4C3124"/>
<path fill-rule="evenodd" clip-rule="evenodd" d="M35.8767 114.317C35.562 114.63 35.0899 114.787 34.7752 114.473C34.4605 114.16 34.3031 113.689 34.6178 113.376C35.2473 112.592 35.7193 111.651 36.3488 110.71C40.7548 103.967 44.5313 98.1647 60.267 94.0875C75.0586 90.1672 77.7336 71.5064 80.2513 55.1978C80.5661 53.0024 80.8808 50.807 81.1955 48.6116C81.6676 45.3185 82.6117 42.339 83.8706 39.6732C86.2309 34.3416 89.6928 30.578 93.1546 28.069C96.7738 25.56 100.708 24.6191 104.012 25.0896C104.799 25.2464 105.586 25.4032 106.215 25.7168L113.611 29.0099C113.926 29.1667 114.24 29.6371 114.083 30.1076C113.926 30.4212 113.454 30.7348 112.982 30.578L105.586 27.2849C104.956 26.9713 104.327 26.8145 103.698 26.6577C100.865 26.1872 97.4033 27.1281 94.0988 29.3235C90.6369 31.6757 87.4898 35.2824 85.2868 40.3005C84.1853 42.8095 83.2411 45.6321 82.7691 48.9252C82.4543 50.9638 82.1396 53.1592 81.8249 55.5114C79.3072 72.2905 76.4748 91.5785 60.7391 95.8125C45.6328 99.7328 42.0136 105.221 37.765 111.807C37.1355 112.592 36.5061 113.376 35.8767 114.317Z" fill="#4E2C0B"/>
<path fill-rule="evenodd" clip-rule="evenodd" d="M34.7752 93.304C34.6178 93.7745 34.1457 93.9313 33.6737 93.7745C33.2016 93.6177 33.0442 93.1472 33.2016 92.6768C34.9325 88.7564 37.1355 86.0906 39.9679 84.052C42.643 82.1702 45.9475 80.9157 49.8814 79.8181C64.673 75.8977 67.348 57.2369 69.8658 40.9283C70.1805 38.7329 70.4952 36.5375 70.8099 34.3421C71.282 31.3626 72.2261 28.54 73.3276 26.031C75.688 21.0129 79.1498 17.2494 83.5558 14.8972C87.9618 12.545 93.1546 11.7609 98.6621 12.545C101.337 13.0154 104.17 13.7995 107.002 15.2108C107.317 15.3676 107.631 15.8381 107.317 16.3085C107.159 16.6222 106.687 16.9358 106.215 16.6222C103.54 15.3676 100.865 14.5836 98.19 14.1131C92.9972 13.3291 88.1192 14.1131 84.0279 16.3085C80.2513 18.3471 76.9468 21.9538 74.7438 26.6582C73.6423 29.0104 72.8555 31.6763 72.3835 34.4989C72.0688 36.5375 71.754 38.7329 71.4393 41.0851C68.9216 57.8641 66.0892 77.1522 50.3535 81.2294C46.7343 82.1703 43.5871 83.4248 41.0694 85.1497C38.3944 87.0315 36.3487 89.5405 34.7752 93.304Z" fill="#4E2C0B"/>
<path fill-rule="evenodd" clip-rule="evenodd" d="M199.056 113.532C199.371 113.846 199.214 114.316 198.899 114.63C198.584 114.944 198.112 114.787 197.798 114.473C197.168 113.532 196.539 112.748 196.067 111.807C191.818 105.221 188.199 99.7328 173.092 95.8125C157.357 91.7353 154.524 72.4473 152.007 55.5114C151.692 53.316 151.377 51.1206 151.062 48.9252C150.59 45.7889 149.646 42.9663 148.545 40.3005C146.342 35.2824 143.195 31.6757 139.733 29.3235C136.428 27.1281 132.966 26.1872 130.134 26.6577C129.505 26.8145 128.875 26.9713 128.246 27.2849L120.85 30.578C120.535 30.7348 120.063 30.578 119.748 30.1076C119.591 29.794 119.748 29.3235 120.221 29.0099L127.616 25.7168C128.403 25.4032 129.033 25.2464 129.819 25.0896C133.124 24.6191 136.9 25.56 140.677 28.069C144.296 30.578 147.601 34.3416 149.961 39.6732C151.063 42.339 152.007 45.3185 152.636 48.6116C152.951 50.807 153.265 53.0024 153.58 55.1978C155.941 71.5064 158.773 90.324 173.565 94.0875C189.3 98.1647 193.077 103.967 197.483 110.71C197.955 111.651 198.584 112.592 199.056 113.532Z" fill="#4E2C0B"/>
<path fill-rule="evenodd" clip-rule="evenodd" d="M200.473 92.6769C200.63 92.9905 200.473 93.4609 200.001 93.7746C199.529 93.9314 199.214 93.7746 198.899 93.3041C197.326 89.6974 195.28 87.1884 192.605 85.3066C190.087 83.4249 186.94 82.3272 183.321 81.3863C167.585 77.3092 164.753 58.0211 162.235 41.0852C161.92 38.8898 161.606 36.6944 161.291 34.499C160.819 31.6764 160.032 29.0105 158.931 26.6583C156.728 21.9539 153.423 18.3472 149.332 16.1518C145.398 14.1133 140.52 13.3292 135.327 14.1133C132.809 14.5837 130.134 15.3678 127.302 16.6223C126.987 16.7791 126.515 16.6223 126.2 16.3086C126.043 15.995 126.2 15.5246 126.515 15.211C129.348 13.9564 132.18 13.0156 134.855 12.5451C140.363 11.6042 145.555 12.5451 149.961 14.8973C154.367 17.2495 157.829 21.0131 160.19 26.0311C161.291 28.5401 162.235 31.2059 162.707 34.3422C163.022 36.5376 163.337 38.733 163.651 40.9284C166.012 57.237 168.844 76.0546 183.636 79.8182C187.412 80.759 190.717 82.0135 193.392 84.0521C196.382 85.9339 198.742 88.5997 200.473 92.6769Z" fill="#4E2C0B"/>
</g>
<defs>
<clipPath id="clip0_134_287">
<rect width="231" height="313" fill="white"/>
</clipPath>
</defs>
</svg>
