<svg width="737" height="696" viewBox="0 0 737 696" fill="none" xmlns="http://www.w3.org/2000/svg">
<g clip-path="url(#clip0_107_25)">
<path d="M585.952 243.859L555.38 245.312L514.703 236.495L513.097 221.195L650.724 209.371L647.356 228.612L585.952 243.859Z" fill="#4191CA"/>
<path d="M630.515 291.262C630.515 291.262 634.142 298.834 633.676 309.414C633.261 319.113 629.738 327.774 623.934 327.877C618.131 328.033 615.644 325.129 612.949 319.009C611.602 315.949 609.84 310.763 608.855 307.34C607.197 301.687 604.451 296.241 604.451 296.241L630.515 291.262Z" fill="#2D3E44"/>
<path d="M531.855 295.567C531.855 295.567 526.207 311.385 527.191 321.965C528.124 331.663 532.01 340.065 537.866 339.962C543.669 339.806 546.001 336.85 548.385 330.574C549.576 327.463 551.079 322.173 551.908 318.698C553.307 312.993 555.794 307.392 555.794 307.392L531.855 295.567Z" fill="#2D3E44"/>
<path d="M647.356 228.612C647.356 228.612 645.49 241.059 641.863 252.054C638.599 262.012 632.951 273.369 632.951 273.369L630.93 291.729C630.93 291.729 628.494 296.708 620.981 298.264C612.016 300.131 604.399 296.189 604.399 296.189C601.238 290.277 599.58 283.431 596.678 277.622C594.347 272.903 584.553 242.978 585.9 243.756L647.356 228.612Z" fill="#4191CA"/>
<path d="M514.703 236.495C514.703 236.495 515.843 248.942 518.227 258.589C520.61 268.235 524.341 278.763 524.341 278.763C524.341 278.763 524.859 284.779 526.88 292.559C528.124 297.278 530.248 301.272 530.248 301.272C530.248 301.272 534.083 307.858 541.234 309.622C548.384 311.333 555.794 307.91 555.794 307.91C563.878 282.446 569.992 259.678 571.599 243.134L514.703 236.495Z" fill="#4191CA"/>
<path d="M562.893 0.985343C562.842 0.985343 542.84 -1.91898 525.74 15.6625C513.356 28.3689 504.547 47.1952 506.879 65.2435C507.915 73.2822 511.128 81.1654 510.04 89.1523C509.21 95.2202 505.946 100.77 505.324 106.889C504.236 117.262 510.869 127.271 509.832 137.644C509.314 142.934 507.034 149.106 510.661 152.995C512.06 154.499 514.081 155.226 516.05 155.692C527.658 158.545 539.472 153.929 551.079 153.255C561.235 152.632 571.391 151.906 581.548 151.18C591.963 150.454 602.378 149.676 612.794 148.846C620.255 148.276 628.287 149.884 632.899 142.312C635.749 137.644 635.956 131.732 634.816 126.39C633.728 121.048 631.448 115.965 629.634 110.831C627.821 105.645 626.422 100.147 627.199 94.7534C627.924 89.7227 630.412 85.0032 630.463 79.9207C630.515 72.4005 625.282 65.9177 623.313 58.6569C622.173 54.456 622.173 49.9958 621.603 45.6912C619.219 28.8357 605.695 13.0175 590.927 5.2381C584.709 1.97074 577.713 -5.2158e-05 570.666 0.0518107C568.334 -5.2158e-05 565.07 1.29652 562.893 0.985343Z" fill="#3A4854"/>
<path d="M531.129 92.9899L501.697 105.696C501.697 105.696 489.624 161.605 492.992 168.139C496.412 174.674 500.661 184.424 506.361 197.649C511.231 208.955 512.423 245.259 514.444 249.357C515.48 251.431 524.963 254.543 534.601 254.387C544.291 254.232 554.188 250.757 555.743 248.786C558.852 244.844 555.276 206.258 561.702 203.51C565.484 201.902 594.139 202.732 594.139 202.732C594.139 202.732 591.652 247.489 592.999 247.645C596.886 248.06 609.426 250.134 621.292 249.357C633.158 248.579 644.402 245 646.268 243.548C650.05 240.695 651.139 205.947 655.232 200.605C659.326 195.315 661.036 187.795 666.891 182.246C672.746 176.697 644.869 92.4194 644.869 92.4194L583.776 84.2251L531.129 92.9899Z" fill="#F6C15A"/>
<path d="M547.452 125.975L546.467 133.391L560.51 161.293L578.335 162.953L594.139 142.83L597.663 121.515L547.452 125.975Z" fill="#EA9E82"/>
<path d="M553.773 174.415C556.572 187.017 557.712 199.931 558.23 212.845C558.282 214.142 556.623 237.947 557.66 238.673C558.437 239.191 566.106 239.969 573.05 239.451C579.993 238.932 588.854 237.221 592.688 234.835C592.688 234.835 593.88 211.963 593.828 211.03C592.118 176.126 605.28 142.052 606.109 107.097C602.43 112.594 585.848 158.389 572.169 159.167C558.489 159.945 543.358 117.366 537.969 118.507C534.135 119.284 547.089 118.195 543.928 120.374C538.073 124.367 543.98 138.889 545.586 144.853C548.229 154.707 551.545 164.457 553.773 174.415Z" fill="white"/>
<path opacity="0.2" d="M571.702 193.293C571.495 193.293 571.34 193.241 571.184 193.086C570.822 192.774 570.77 192.256 571.081 191.945L583.983 176.386C584.294 176.023 584.812 175.971 585.123 176.282C585.486 176.593 585.538 177.112 585.227 177.423L572.324 192.982C572.169 193.189 571.962 193.293 571.702 193.293Z" fill="black"/>
<path d="M501.697 105.696C501.697 105.696 474.234 114.824 474.285 137.696C474.337 165.079 475.581 205.947 480.089 214.297C486.307 225.863 502.422 234.679 512.579 227.885C522.787 221.091 527.968 210.615 523.668 206.933C519.367 203.25 511.646 189.766 511.646 189.766L501.697 105.696Z" fill="#F6C15A"/>
<path d="M644.972 92.4194C644.972 92.4194 663.626 95.7387 666.528 111.505C671.658 139.303 675.13 187.899 671.969 196.819C667.565 209.215 653.056 220.365 641.915 215.179C630.826 209.993 624.038 200.45 627.717 196.197C631.396 191.892 636.992 177.423 636.992 177.423L644.972 92.4194Z" fill="#F6C15A"/>
<path d="M501.127 229.856C510.143 231.412 564.241 229.908 594.45 222.232L591.859 205.688L502.889 215.231L501.127 229.856Z" fill="#EA9E82"/>
<path d="M627.717 196.249C627.717 196.249 541.13 204.443 526.258 202.939C511.439 201.383 507.76 190.492 507.76 190.492L504.288 208.022C504.288 208.022 542.166 227.885 566.21 229.078C588.543 230.219 629.013 227.626 657.978 212.638C656.165 215.749 633.365 213.053 627.717 196.249Z" fill="#EA9E82"/>
<path d="M555.121 228.197C555.069 228.197 555.069 228.197 555.017 228.197C528.227 225.5 502.837 216.061 502.578 215.957C502.163 215.801 501.956 215.335 502.111 214.92C502.267 214.505 502.733 214.297 503.148 214.453C503.407 214.557 528.642 223.892 555.173 226.589C555.639 226.641 555.95 227.056 555.898 227.471C555.898 227.886 555.535 228.197 555.121 228.197Z" fill="#B67867"/>
<path d="M508.019 189.611C508.019 189.611 531.336 224.152 501.127 229.856L491.644 210.926L501.697 192.567L508.019 189.611Z" fill="#F6C15A"/>
<path opacity="0.2" d="M510.972 196.457C510.92 196.457 510.869 196.457 510.817 196.457C510.35 196.353 510.091 195.938 510.143 195.523C510.402 194.226 510.091 192.722 509.78 191.322C509.625 190.596 509.469 189.87 509.366 189.144C509.107 186.914 508.951 184.684 508.848 182.454C508.796 181.364 508.692 180.223 508.64 179.134L507.19 159.271C507.138 158.804 507.5 158.441 507.967 158.389C508.433 158.337 508.796 158.7 508.848 159.167L510.299 179.031C510.402 180.12 510.454 181.261 510.506 182.402C510.609 184.58 510.765 186.81 511.024 188.988C511.076 189.663 511.231 190.337 511.387 191.063C511.698 192.671 512.06 194.278 511.749 195.938C511.698 196.145 511.387 196.457 510.972 196.457Z" fill="black"/>
<path opacity="0.2" d="M630.204 191.634C630.101 191.634 629.997 191.634 629.893 191.582C629.479 191.426 629.272 190.959 629.427 190.493C630.671 187.329 631.707 183.854 632.64 179.964C634.92 170.37 635.904 160.36 636.837 150.662C636.889 150.195 637.303 149.884 637.718 149.936C638.184 149.988 638.495 150.403 638.443 150.817C637.511 160.568 636.526 170.629 634.194 180.327C633.262 184.321 632.173 187.796 630.878 191.063C630.826 191.426 630.515 191.634 630.204 191.634Z" fill="black"/>
<path opacity="0.2" d="M660.828 193.086C660.621 193.086 660.414 193.034 660.258 192.878C657.978 190.804 654.869 189.196 651.087 188.159C647.667 187.225 644.039 186.862 640.568 186.499C640.101 186.447 639.79 186.032 639.842 185.617C639.894 185.151 640.309 184.84 640.723 184.891C644.299 185.254 647.978 185.669 651.501 186.603C655.543 187.692 658.859 189.403 661.347 191.685C661.657 191.997 661.709 192.515 661.398 192.826C661.295 192.982 661.036 193.086 660.828 193.086Z" fill="black"/>
<path opacity="0.2" d="M487.033 209.89C486.929 209.89 486.877 209.89 486.773 209.838C486.359 209.682 486.1 209.267 486.255 208.8C488.794 200.606 496.826 197.598 500.661 196.146C501.282 195.887 501.852 195.679 502.111 195.575C502.526 195.368 502.992 195.524 503.2 195.938C503.407 196.353 503.251 196.82 502.837 197.028C502.474 197.235 501.904 197.442 501.179 197.702C497.552 199.05 490.038 201.903 487.758 209.319C487.706 209.682 487.395 209.89 487.033 209.89Z" fill="black"/>
<path d="M606.627 192.619C606.627 192.619 617.924 183.698 621.188 182.35C624.453 181.002 638.288 179.446 640.827 180.068C643.418 180.69 642.381 183.387 639.894 183.906C639.894 183.906 644.351 183.491 645.905 185.514C647.46 187.536 644.299 189.092 642.071 189.248C642.071 189.248 645.024 188.729 646.268 190.129C648.185 192.308 645.18 194.123 642.381 194.071C642.381 194.071 643.781 194.227 644.869 195.264C645.905 196.301 643.055 197.909 641.397 197.753C636.215 197.39 632.122 196.301 630.101 196.353C627.717 196.457 616.214 197.131 616.214 197.131L599.218 198.739C599.269 198.791 602.948 195.575 606.627 192.619Z" fill="#EA9E82"/>
<path d="M628.702 186.084C628.183 186.084 627.769 185.721 627.665 185.151C627.613 184.58 628.028 184.062 628.546 184.01C633.21 183.491 639.687 182.817 639.739 182.817C640.309 182.765 640.827 183.18 640.879 183.75C640.931 184.321 640.516 184.84 639.946 184.891C639.894 184.891 633.417 185.566 628.753 186.084C628.805 186.084 628.753 186.084 628.702 186.084Z" fill="#B67867"/>
<path d="M630.153 191.841C629.634 191.841 629.168 191.478 629.116 190.907C629.064 190.337 629.479 189.818 629.997 189.766L641.241 188.521C641.811 188.47 642.33 188.885 642.381 189.403C642.433 189.974 642.019 190.492 641.501 190.544L630.256 191.789C630.256 191.841 630.204 191.841 630.153 191.841Z" fill="#B67867"/>
<path d="M640.879 194.953L634.505 194.797C633.935 194.797 633.469 194.33 633.521 193.76C633.521 193.189 633.987 192.774 634.557 192.774L640.931 192.93C641.501 192.93 641.967 193.397 641.915 193.967C641.863 194.486 641.449 194.953 640.879 194.953Z" fill="#B67867"/>
<path d="M603.104 199.361C602.586 199.361 602.119 198.946 602.068 198.428C602.016 197.857 602.43 197.39 603 197.338L622.069 195.627C622.639 195.575 623.105 195.99 623.157 196.56C623.209 197.131 622.795 197.598 622.225 197.65L603.156 199.361C603.156 199.361 603.156 199.361 603.104 199.361Z" fill="#B67867"/>
<path d="M581.859 84.433L536.415 96.7763C536.415 96.7763 519.729 93.7683 509.003 93.6646C508.9 94.1313 508.744 94.5462 508.589 94.9093C506.464 99.4213 503.77 103.985 503.977 108.964C504.236 116.225 510.661 121.878 517.346 124.679C523.668 127.272 530.922 128.153 537.296 125.664C539.835 124.627 542.166 123.123 544.654 121.982C549.11 119.907 554.084 118.974 559.007 118.507C571.961 117.314 585.227 119.077 597.404 123.641C602.534 125.56 607.094 124.575 611.964 127.946C616.732 131.265 621.136 134.118 627.251 134.118C629.531 134.118 631.966 133.651 633.676 132.095C636.681 129.294 636.06 124.419 637.407 120.478C638.702 116.795 641.811 113.943 642.951 110.209C644.35 105.697 642.278 100.355 638.236 97.9173C636.37 96.8282 634.194 96.3096 632.225 95.3242C629.841 94.1313 628.339 90.1379 628.339 90.1379C628.339 90.1379 621.343 86.7149 619.012 86.4038C613.415 85.5739 607.456 88.1152 601.86 87.2854C597.196 86.6112 592.481 85.937 587.818 85.2628C586.263 85.0553 583.309 84.0181 581.859 84.433Z" fill="#3A4854"/>
<path d="M595.331 14.4697C580.46 3.47479 566.987 4.56391 563.101 4.87508C559.266 5.18626 545.742 6.17166 532.736 19.293C520.144 31.9994 517.19 48.9585 520.196 70.5854C523.201 92.2122 528.798 109.846 538.28 122.293C547.763 134.688 564.603 142.26 573.62 141.586C582.636 140.911 597.715 132.198 604.399 119.336C611.084 106.474 615.955 85.0551 615.592 63.2727C615.229 41.4384 609.685 25.0497 595.331 14.4697Z" fill="#EA9E82"/>
<path d="M572.791 142.363C565.743 142.363 555.224 136.399 549.473 132.717C549.11 132.458 548.955 131.991 549.214 131.576C549.473 131.213 549.939 131.057 550.354 131.317C560.303 137.644 568.801 141.015 573.568 140.652C579.579 140.185 588.336 136.814 592.688 131.42C592.948 131.057 593.466 131.005 593.828 131.317C594.191 131.576 594.243 132.095 593.932 132.458C588.698 138.94 578.957 141.897 573.671 142.312C573.361 142.363 573.101 142.363 572.791 142.363Z" fill="#B67867"/>
<path d="M589.572 82.5997C591.541 82.4485 592.917 79.4549 592.646 75.9135C592.374 72.3721 590.558 69.6238 588.589 69.775C586.62 69.9262 585.244 72.9197 585.516 76.4612C585.787 80.0026 587.603 82.7509 589.572 82.5997Z" fill="#160D0B"/>
<path d="M544.809 79.557C545.068 83.0836 546.882 85.8324 548.851 85.6768C550.82 85.5212 552.167 82.5131 551.908 78.9865C551.649 75.4598 549.835 72.7111 547.866 72.8666C545.897 73.0222 544.55 76.0303 544.809 79.557Z" fill="#160D0B"/>
<path d="M568.386 103.207C566.573 103.207 564.033 102.325 562.79 99.0059C562.013 96.9832 561.598 92.6267 561.65 86.1957C561.65 81.4244 561.909 77.1716 561.909 77.1197C561.909 76.653 562.323 76.3418 562.79 76.3418C563.256 76.3418 563.567 76.7567 563.567 77.2235C563.567 77.2753 563.308 81.4762 563.308 86.1957C563.308 92.3674 563.671 96.6202 564.344 98.4354C565.847 102.273 569.008 101.599 569.319 101.495C569.733 101.392 570.2 101.651 570.303 102.066C570.407 102.481 570.148 102.947 569.733 103.051C569.319 103.155 568.904 103.207 568.386 103.207Z" fill="#B67867"/>
<path d="M579.838 59.6939C578.646 61.0942 579.164 63.7911 581.651 64.206C583.879 64.5171 589.579 63.6873 593.569 64.3097C597.404 64.932 601.549 66.9028 602.43 66.5398C603.311 66.1767 602.689 64.3097 599.943 62.4945C597.404 60.783 595.02 58.7604 590.408 58.1899C585.797 57.5675 581.029 58.2936 579.838 59.6939Z" fill="#3A4854"/>
<path d="M555.224 61.3018C556.572 62.5465 556.364 65.2952 553.981 65.9694C551.804 66.5918 546.053 66.3843 542.166 67.5253C538.435 68.6144 534.549 71.1039 533.616 70.8445C532.684 70.5852 533.098 68.6663 535.585 66.5399C537.865 64.5173 540.301 62.3909 545.016 61.0425C549.732 59.694 553.929 60.1089 555.224 61.3018Z" fill="#3A4854"/>
<path d="M611.291 71.0519C615.125 65.6063 625.022 70.3258 624.452 80.1279C623.882 89.8781 615.695 100.303 610.151 100.717C604.606 101.081 606.161 78.4164 611.291 71.0519Z" fill="#EA9E82"/>
<path d="M526.569 77.5345C521.958 72.7113 512.889 78.9348 514.91 88.4776C516.931 98.0204 526.621 107.096 532.166 106.63C537.762 106.215 532.787 84.0174 526.569 77.5345Z" fill="#EA9E82"/>
<path d="M595.59 13.8471C580.563 2.74848 566.935 3.8376 563.049 4.14878C559.162 4.45995 545.534 5.44535 532.373 18.7222C519.626 31.5324 516.672 48.699 519.678 70.5333C519.988 72.6078 520.817 76.2901 521.077 76.1863C539.627 68.9255 532.373 51.2403 540.612 40.5047C548.903 29.6653 560.043 33.3994 560.043 33.3994C572.48 29.1467 581.91 35.8889 589.476 56.6859C597.248 77.9497 615.903 68.7699 615.903 68.7699L616.058 68.4069C616.11 66.6436 616.11 64.8802 616.058 63.1169C615.695 41.0752 610.151 24.5828 595.59 13.8471Z" fill="#3A4854"/>
<path d="M523.408 94.7016C523.149 94.7016 522.942 94.5979 522.787 94.3904C519.833 90.8119 520.092 85.8331 520.092 85.6256C520.144 85.1588 520.507 84.8477 520.973 84.8477C521.439 84.8995 521.75 85.2626 521.75 85.7293C521.75 85.7812 521.543 90.2933 524.082 93.3532C524.393 93.7162 524.341 94.2348 523.979 94.4941C523.771 94.5979 523.616 94.7016 523.408 94.7016Z" fill="#B67867"/>
<path d="M616.11 87.337C615.955 87.337 615.747 87.2852 615.592 87.1814C615.229 86.9221 615.177 86.4035 615.436 86.0404C615.488 85.9886 618.183 82.41 617.768 78.4166C617.716 77.9498 618.079 77.5868 618.494 77.5349C618.96 77.4831 619.323 77.7942 619.375 78.261C619.841 82.8768 616.835 86.8703 616.68 87.0258C616.628 87.2333 616.369 87.337 616.11 87.337Z" fill="#B67867"/>
<path opacity="0.4" d="M522.424 51.811C522.372 51.811 522.372 51.811 522.32 51.811C521.854 51.7591 521.543 51.3442 521.647 50.8775C521.75 50.2551 523.978 35.3186 533.357 25.4647C537.296 21.3156 543.047 18.8781 549.991 18.3076C555.224 17.8927 559.214 18.7225 559.37 18.7225C559.784 18.8262 560.095 19.2411 559.992 19.7079C559.888 20.1746 559.473 20.434 559.007 20.3302C558.852 20.2784 543.358 17.2703 534.497 26.5538C525.481 35.9928 523.253 50.9293 523.253 51.0849C523.149 51.4998 522.838 51.811 522.424 51.811Z" fill="black"/>
<path opacity="0.4" d="M586.729 11.6168C586.574 11.6168 586.418 11.565 586.315 11.5131C581.34 8.50505 575.329 8.24574 571.132 8.55692C566.521 8.91996 563.101 10.0091 563.049 10.0091C562.634 10.1647 562.168 9.90535 562.012 9.49045C561.857 9.07555 562.116 8.60878 562.531 8.45319C562.686 8.40133 566.158 7.31221 570.925 6.94917C575.381 6.58613 581.807 6.8973 587.144 10.1128C587.507 10.3203 587.662 10.8389 587.403 11.2538C587.299 11.4612 587.04 11.6168 586.729 11.6168Z" fill="black"/>
<path opacity="0.4" d="M615.125 68.7178C615.073 68.7178 615.022 68.7178 614.918 68.7178C607.042 66.8508 600.202 59.1751 594.657 45.95C590.564 36.1998 588.698 26.8645 588.698 26.7608C588.595 26.294 588.906 25.8791 589.32 25.8272C589.787 25.7235 590.201 26.0347 590.253 26.4496C590.305 26.8126 597.611 62.9092 615.281 67.1101C615.695 67.2138 616.006 67.6287 615.902 68.0955C615.851 68.4585 615.488 68.7178 615.125 68.7178Z" fill="black"/>
<path opacity="0.4" d="M620.1 46.6243C619.737 46.6243 619.426 46.365 619.323 46.0538C616.214 34.9552 605.384 27.6944 605.28 27.5906C604.917 27.3313 604.814 26.8127 605.073 26.4496C605.332 26.0866 605.85 25.9829 606.213 26.2422C606.679 26.5534 617.665 33.866 620.929 45.5871C621.033 46.002 620.774 46.4687 620.359 46.5724C620.204 46.5724 620.152 46.6243 620.1 46.6243Z" fill="black"/>
<path d="M582.118 109.275C582.636 110.468 576.988 115.447 571.961 115.81C566.935 116.173 560.665 112.387 560.769 110.986C560.872 109.482 566.417 110.26 571.34 109.897C576.677 109.482 581.6 108.03 582.118 109.275Z" fill="white"/>
<path d="M582.118 109.275C581.6 108.03 576.625 109.482 571.34 109.897C568.438 110.105 565.329 109.949 563.257 110.053C561.754 110.156 560.769 110.364 560.769 110.986C560.769 111.142 565.381 112.75 571.651 112.231C576.625 111.868 582.17 109.327 582.118 109.275Z" fill="white"/>
<path d="M319.403 369.005C319.403 369.005 317.538 377.096 317.797 383.578C318.004 390.061 316.398 408.369 308.521 406.969C300.645 405.568 299.505 395.611 299.712 391.462C299.92 387.313 303.858 363.922 303.858 363.922L319.403 369.005Z" fill="#F3E6E0"/>
<path d="M362.619 365.063C362.619 365.063 367.593 376.473 367.645 384.097C367.697 391.772 367.749 404.531 361.272 403.96C354.794 403.39 352.463 399.811 350.908 393.225C349.405 386.638 350.96 379.066 347.488 369.627L362.619 365.063Z" fill="#F3E6E0"/>
<path d="M390.445 326.373C390.445 327.307 384.693 339.08 377.957 348.623C370.806 358.84 367.541 367.345 364.847 370.612C360.339 376.11 349.509 377.458 347.54 369.627L339.094 356.972C337.228 356.869 335.466 356.713 333.86 356.454C332.202 356.195 330.699 355.987 329.352 355.78C327.072 359.306 321.942 366.878 321.942 366.878C321.942 366.878 319.61 371.287 315.672 373.361C311.734 375.436 308.262 371.961 305.93 369.679C303.599 367.345 297.38 357.18 292.043 345.355C286.706 333.53 281.628 311.748 281.628 311.748L390.445 326.373Z" fill="#AA5743"/>
<path opacity="0.2" d="M377.698 347.637C377.594 347.637 377.438 347.585 377.335 347.533C375.055 346.34 373.086 344.629 371.635 342.503C371.376 342.14 371.479 341.673 371.842 341.465C372.205 341.206 372.671 341.31 372.878 341.673C374.174 343.592 375.988 345.148 378.008 346.237C378.371 346.444 378.527 346.911 378.319 347.274C378.268 347.481 378.008 347.637 377.698 347.637Z" fill="black"/>
<path opacity="0.2" d="M292.25 329.226C290.955 329.226 289.66 329.07 288.364 328.759C287.95 328.655 287.69 328.24 287.794 327.825C287.898 327.41 288.312 327.151 288.727 327.255C290.23 327.67 291.784 327.773 293.39 327.67C293.805 327.618 294.168 327.929 294.219 328.344C294.271 328.759 293.96 329.122 293.546 329.174C293.079 329.226 292.665 329.226 292.25 329.226Z" fill="black"/>
<path d="M413.089 327.67C413.089 327.67 411.845 334.879 409.151 338.094C406.456 341.31 404.332 347.585 404.021 349.193C403.71 350.749 401.741 357.958 402.622 359.203C403.503 360.499 407.285 359.047 407.285 359.047C407.285 359.047 410.55 363.092 413.141 362.314C415.732 361.536 419.618 358.01 420.602 356.661C421.587 355.313 421.587 355.313 421.587 355.313C421.587 355.313 424.851 354.95 424.903 353.498C424.955 352.097 424.903 343.955 424.955 342.192C425.059 340.428 426.561 327.411 426.561 327.411L413.089 327.67Z" fill="#ED9F80"/>
<path d="M407.233 359.929C407.182 359.929 407.13 359.929 407.078 359.929C406.612 359.825 406.301 359.358 406.353 358.891C407.648 351.89 410.653 351.164 410.964 351.112C411.016 351.112 411.12 351.112 411.172 351.112C413.037 351.216 413.814 353.031 413.762 354.327C413.762 354.431 413.762 354.535 413.762 354.69C413.762 355.468 413.762 356.557 413.089 357.18C412.778 357.439 412.415 357.595 412.001 357.595C410.083 357.491 409.41 357.647 409.254 357.75C409.047 358.01 408.684 358.113 408.373 358.061C408.27 358.476 408.166 358.891 408.114 359.358C408.011 359.669 407.648 359.929 407.233 359.929ZM411.223 352.875C410.964 352.979 409.928 353.601 408.995 355.883C409.721 355.728 410.653 355.676 411.897 355.728C411.949 355.468 411.949 354.898 411.949 354.638C411.949 354.483 411.949 354.327 411.949 354.224C412.001 354.224 412.001 353.031 411.223 352.875Z" fill="#B87865"/>
<path d="M415.006 220.054L408.995 279.126C411.068 290.588 413.089 327.67 413.089 327.67L426.561 327.41C426.561 327.41 441.589 261.804 445.216 237.376C433.868 238.984 426.302 218.706 415.006 220.054Z" fill="#ED9F80"/>
<path d="M447.859 206.155C444.853 195.368 433.505 190.855 433.505 190.855L412.934 258.277C418.426 257.603 418.374 261.959 423.245 264.034C428.427 266.212 438.531 266.16 444.335 265.331C447.133 246.452 451.019 217.513 447.859 206.155Z" fill="#782B3A"/>
<path d="M397.855 171.874L433.505 190.855C433.505 190.855 417.286 257.551 413.607 267.301C409.928 277.052 405.265 293.7 403.866 302.516C402.466 311.333 396.248 324.662 389.512 328.914C382.569 333.323 380.237 340.947 359.872 339.546C338.575 338.094 306.19 339.546 293.909 324.973C289.66 319.942 283.027 315.015 278.882 309.466C274.736 303.917 277.949 294.633 279.348 288.617C279.607 287.58 280.022 283.171 280.644 276.637C281.524 266.472 276.498 248.786 277.742 232.761C280.281 199.983 289.09 166.791 289.09 166.791L340.026 161.708L397.855 171.874Z" fill="#782B3A"/>
<path opacity="0.2" d="M360.805 220.988C358.422 220.988 356.09 220.677 353.81 220.106C344.379 217.617 335.829 209.682 330.958 198.842C326.606 189.144 325.31 178.305 324.326 168.036C324.326 167.932 324.326 167.828 324.326 167.725C324.326 167.31 324.637 166.999 325.051 166.947C325.466 166.947 325.777 167.206 325.828 167.569C326.865 169.125 340.648 175.452 344.12 176.749L344.69 176.956C352.307 179.809 360.183 182.765 368.371 183.284C369.718 183.387 372.153 183.18 374.951 182.972C382.154 182.402 391.118 181.676 393.657 184.476C395.264 186.24 394.901 188.833 394.538 190.648C392.828 198.687 388.942 206.051 383.553 211.393C382.569 212.379 381.48 213.312 380.392 214.194C374.692 218.654 367.645 220.988 360.805 220.988ZM326.036 169.747C326.968 179.342 328.367 189.352 332.357 198.22C337.021 208.645 345.208 216.268 354.224 218.602C362.515 220.78 372.153 218.602 379.459 213.001C380.496 212.171 381.532 211.29 382.465 210.356C387.647 205.222 391.429 198.116 393.036 190.389C393.347 188.885 393.657 186.758 392.517 185.514C390.497 183.284 381.221 184.01 375.055 184.528C372.153 184.736 369.666 184.943 368.215 184.839C359.821 184.269 351.841 181.313 344.12 178.408L343.55 178.201C342.358 177.734 337.746 175.763 333.186 173.585C329.456 171.77 327.279 170.577 326.036 169.747Z" fill="white"/>
<path opacity="0.2" d="M364.225 327.307C363.862 327.307 363.551 327.047 363.499 326.684C363.448 326.269 363.707 325.854 364.121 325.803L381.377 322.587C382.05 322.483 382.724 322.328 383.294 322.068C383.76 321.809 384.175 321.446 384.589 321.083C388.838 317.245 392.465 312.733 395.315 307.702C395.523 307.339 395.989 307.184 396.352 307.391C396.715 307.599 396.87 308.065 396.663 308.429C393.761 313.563 390.03 318.231 385.626 322.172C385.107 322.639 384.641 323.054 383.967 323.365C383.19 323.78 382.361 323.936 381.636 324.039L364.38 327.255C364.329 327.307 364.277 327.307 364.225 327.307Z" fill="white"/>
<path opacity="0.2" d="M302.562 307.858C302.355 307.858 302.096 307.755 301.94 307.547C297.691 301.946 293.701 296.085 290.022 290.069C289.815 289.706 289.919 289.239 290.281 289.032C290.644 288.825 291.111 288.928 291.318 289.291C294.945 295.256 298.935 301.064 303.132 306.665C303.391 306.977 303.339 307.495 302.977 307.755C302.873 307.806 302.718 307.858 302.562 307.858Z" fill="black"/>
<path opacity="0.2" d="M311.682 323.832C311.579 323.832 311.475 323.832 311.371 323.78L301.215 319.527C300.852 319.372 300.645 318.905 300.801 318.542C300.956 318.127 301.422 317.971 301.785 318.127L311.941 322.38C312.304 322.535 312.511 323.002 312.356 323.365C312.304 323.676 311.993 323.832 311.682 323.832Z" fill="white"/>
<path d="M262.663 184.01C262.663 184.01 218.462 219.121 211.312 230.116C204.109 241.111 216.597 254.543 224.266 263.723C239.397 281.771 253.128 294.167 253.128 294.167L261.108 280.786L245.822 250.757L273.13 225.033L262.663 184.01Z" fill="#EA9E82"/>
<path d="M261.108 280.838C262.404 281.719 264.217 282.445 265.668 282.03C267.119 281.615 275.41 277.726 280.851 276.688C280.851 276.688 282.302 282.393 284.426 285.298C286.603 288.202 293.235 294.84 296.189 295.67C299.194 296.5 311.319 299.767 311.889 300.857C312.459 301.946 312.149 304.331 311.112 304.435C310.076 304.539 307.692 304.798 307.692 304.798C307.692 304.798 307.537 307.806 298.106 308.117C298.106 308.117 294.271 313.719 292.251 312.785C290.23 311.852 286.084 309.362 286.084 309.362C286.084 309.362 285.463 311.177 283.804 310.866C282.146 310.555 272.871 307.132 270.487 306.25C268.104 305.369 263.596 302.205 261.782 300.442C259.968 298.678 253.128 294.27 253.128 294.27L261.108 280.838Z" fill="#EA9E82"/>
<path d="M307.692 305.524C307.64 305.524 307.589 305.524 307.589 305.524C307.33 305.472 300.593 304.383 299.557 304.176C298.469 303.916 292.458 301.219 291.266 300.701C290.852 300.545 290.696 300.078 290.903 299.664C291.059 299.249 291.525 299.093 291.94 299.3C294.634 300.545 299.194 302.516 299.92 302.672C300.956 302.879 307.796 304.02 307.9 304.02C308.314 304.072 308.625 304.487 308.521 304.902C308.418 305.265 308.055 305.524 307.692 305.524Z" fill="#B67867"/>
<path d="M298.106 308.843C298.054 308.843 297.95 308.843 297.899 308.791L287.276 305.524C286.861 305.42 286.654 304.954 286.758 304.539C286.861 304.124 287.328 303.916 287.742 304.02L298.365 307.287C298.779 307.391 298.987 307.858 298.883 308.273C298.728 308.636 298.417 308.843 298.106 308.843Z" fill="#B67867"/>
<path d="M286.084 310.088C285.981 310.088 285.877 310.088 285.773 310.036L280.54 307.702C280.125 307.547 279.97 307.08 280.125 306.665C280.281 306.25 280.747 306.095 281.162 306.25L286.395 308.584C286.81 308.74 286.965 309.206 286.81 309.621C286.654 309.932 286.343 310.088 286.084 310.088Z" fill="#B67867"/>
<path d="M289.09 166.791C284.271 167.569 271.99 171.407 264.58 176.541C245.097 189.974 227.168 212.327 227.168 212.327C227.168 212.327 229.707 223.062 236.599 231.879C241.625 238.31 247.48 240.747 252.921 245.623C258.673 250.809 263.906 258.173 264.58 258.173C266.756 258.173 284.011 240.177 284.011 240.177L289.09 166.791Z" fill="#782B3A"/>
<g opacity="0.2">
<path d="M279.918 244.326C279.763 244.326 279.607 244.274 279.452 244.17C279.141 243.911 279.089 243.444 279.348 243.081C279.4 243.029 284.944 235.924 288.727 223.166C292.199 211.393 294.738 192.307 287.38 168.036C287.276 167.621 287.483 167.206 287.898 167.102C288.312 166.998 288.727 167.206 288.831 167.621C296.344 192.256 293.701 211.704 290.126 223.685C286.292 236.702 280.747 243.755 280.54 244.015C280.384 244.222 280.125 244.326 279.918 244.326Z" fill="white"/>
<path d="M290.8 179.03C290.489 179.03 290.178 178.823 290.074 178.512C289.919 178.097 290.126 177.682 290.541 177.526C290.748 177.475 309.143 170.784 326.087 172.34C326.502 172.392 326.813 172.755 326.761 173.17C326.709 173.585 326.347 173.896 325.932 173.844C309.35 172.288 291.266 178.875 291.059 178.927C290.955 179.03 290.903 179.03 290.8 179.03Z" fill="white"/>
<path d="M417.442 255.528C417.39 255.528 417.286 255.528 417.234 255.476C416.82 255.373 416.612 254.906 416.716 254.543C416.768 254.387 421.172 240.177 421.172 236.183C421.172 233.746 422.364 228.197 423.452 223.27C424.23 219.587 425.007 216.112 425.007 215.075C425.007 212.43 431.588 194.174 432.313 192.1C432.469 191.685 432.883 191.478 433.298 191.633C433.712 191.789 433.919 192.204 433.764 192.619C430.862 200.657 426.51 213.312 426.51 215.075C426.51 216.216 425.888 219.069 424.903 223.581C423.867 228.456 422.675 233.953 422.675 236.183C422.675 240.436 418.322 254.387 418.167 254.958C418.115 255.321 417.804 255.528 417.442 255.528Z" fill="white"/>
<path d="M429.93 200.139C429.774 200.139 429.671 200.087 429.515 200.035C417.597 192.826 389.357 185.15 389.098 185.046C388.683 184.943 388.476 184.528 388.579 184.113C388.683 183.698 389.098 183.491 389.512 183.594C390.704 183.905 418.219 191.374 430.344 198.738C430.707 198.946 430.811 199.412 430.603 199.776C430.448 200.035 430.189 200.139 429.93 200.139Z" fill="white"/>
</g>
<path d="M359.769 142.467C367.593 140.912 375.573 142.053 383.708 143.401C389.46 144.335 396.455 145.476 401.326 141.171C404.124 138.733 405.524 134.792 408.84 133.08C410.239 140.289 412.83 147.291 416.509 153.67C417.182 154.811 418.063 156.056 419.359 156.263C420.706 156.47 421.95 155.433 422.572 154.188C423.142 152.996 423.297 151.595 423.556 150.247C423.66 149.78 423.763 149.313 424.074 149.002C425.266 147.654 426.717 147.498 427.753 145.735C428.479 144.542 428.945 142.882 429.152 141.482C429.722 137.8 428.893 133.547 427.65 130.072C427.131 128.672 426.51 127.324 426.51 125.871C426.51 124.419 427.442 122.811 428.945 122.656C429.67 122.604 430.344 122.863 431.07 122.863C433.142 122.863 434.593 120.685 435.06 118.611C436.718 111.557 432.106 104.711 429.722 97.8654C427.961 92.731 427.391 87.2335 425.991 81.9435C424.592 76.6535 422.105 71.3635 417.545 68.3554C413.918 65.9697 409.617 65.2955 405.627 63.8433C402 62.4949 399.357 60.1611 396.093 58.2421C392.725 56.2195 388.838 54.7155 384.9 55.1304C382.983 55.3378 380.962 55.9602 379.2 55.1304C378.475 54.7673 377.957 54.2487 377.283 53.7819C374.485 51.7074 370.65 51.6037 367.23 52.3816C361.945 53.5745 357.23 56.5825 351.789 56.79C346.296 57.0493 340.907 55.5453 335.414 55.7009C328.834 55.9083 331.632 60.4722 328.834 64.2064C325.984 67.9405 321.787 69.6001 319.714 74.3715C318.677 76.7053 318.263 79.2466 317.641 81.6842C316.553 85.8332 314.947 89.8785 312.77 93.6126C311.371 96.0502 309.713 98.4359 309.299 101.236C308.884 104.037 310.283 107.304 312.978 107.927C313.288 108.031 313.703 108.082 313.858 108.394C314.014 108.653 313.91 108.964 313.807 109.275C312.77 112.18 310.335 114.721 310.387 117.833C310.438 119.855 311.527 121.722 311.838 123.693C312.511 128.05 309.402 132.095 308.78 136.451C308.055 141.741 311.268 147.083 315.827 149.832C320.387 152.581 326.087 153.048 331.321 152.218C336.606 151.388 341.581 149.313 346.503 147.239C348.732 146.305 351.012 145.372 353.24 144.438C355.468 143.557 357.592 142.882 359.769 142.467Z" fill="#FCC28E"/>
<path d="M335.104 77.6908C346.918 66.7477 358.266 63.7397 376.35 66.3328C394.383 68.926 404.28 75.4607 412.312 89.1006C420.447 103 416.301 123.486 412.519 138.578C408.788 153.67 406.404 167.829 399.668 179.394C392.88 190.907 387.076 194.538 381.169 198.065C375.21 201.591 365.52 205.637 356.711 204.392C347.902 203.147 341.736 197.753 337.228 192.878C332.046 187.225 326.087 180.327 322.875 166.636C319.714 152.892 320.802 141.223 321.424 125.664C322.045 110.053 322.046 89.8267 335.104 77.6908Z" fill="#ED9F80"/>
<path d="M362.308 174.83C358.732 174.83 355.416 173.741 352.359 171.615C351.944 171.355 351.841 170.785 352.151 170.37C352.411 169.955 352.981 169.851 353.395 170.162C357.696 173.17 362.36 173.793 367.749 172.185C368.215 172.029 368.733 172.289 368.837 172.756C368.992 173.222 368.733 173.741 368.267 173.845C366.194 174.519 364.225 174.83 362.308 174.83Z" fill="#B87865"/>
<path d="M375.107 63.8435C389.771 65.918 404.591 71.5711 412.623 84.7443C422.364 100.666 420.24 120.167 417.545 137.593C417.338 138.993 416.768 140.756 415.317 140.86C412.778 141.016 410.602 137.126 409.825 135.103C408.788 132.406 408.477 129.658 409.203 126.805C409.928 124.004 411.068 121.1 410.291 118.3C410.343 120.426 407.648 121.774 405.627 121.048C403.606 120.322 402.415 118.3 401.741 116.277C401.067 114.254 400.808 112.076 399.927 110.157C397.958 105.852 393.295 103.519 389.357 100.874C385.263 98.1249 382.62 93.6128 378.423 91.2271C374.485 88.997 369.821 90.5529 367.023 93.9759C365.624 95.6873 364.847 97.8656 363.292 99.3696C360.805 101.755 356.971 101.911 353.551 101.548C353.292 101.548 353.033 101.496 352.825 101.392C352.514 101.237 352.307 100.925 352.152 100.562C351.012 98.1249 352.255 94.8575 354.743 93.8203C352.152 93.5091 349.923 95.7911 347.333 96.0504C345.985 96.206 344.224 95.2724 344.483 93.924C342.98 95.5317 340.337 94.8057 338.161 94.5982C332.461 94.0796 326.295 98.3842 323.911 103.415C322.978 105.386 322.823 107.668 322.512 109.846C322.098 112.75 322.357 122.76 321.372 125.56C320.802 127.168 319.662 125.145 318.211 124.264C313.029 121.308 318.937 105.749 320.18 101.496C322.149 94.8057 324.688 88.2191 328.419 82.3067C334.637 72.349 344.068 65.6069 355.675 63.6879C362.152 62.6507 368.733 62.9618 375.107 63.8435Z" fill="#FCC28E"/>
<path d="M361.22 162.746C360.546 162.746 359.872 162.642 359.406 162.486C358.94 162.331 358.681 161.812 358.836 161.346C358.991 160.879 359.51 160.619 359.976 160.775C360.339 160.879 363.603 161.864 365.417 157.923C366.039 156.626 366.868 153.307 367.386 145.061C367.697 140.082 367.749 135.57 367.749 135.57C367.749 135.103 368.163 134.688 368.629 134.688C369.096 134.688 369.51 135.103 369.51 135.57C369.51 135.622 369.459 140.134 369.148 145.164C368.733 152.01 368.008 156.574 367.023 158.649C365.572 161.864 363.137 162.746 361.22 162.746Z" fill="#B87865"/>
<path d="M347.556 136.4C348.085 132.685 346.837 129.435 344.769 129.14C342.701 128.845 340.595 131.617 340.066 135.332C339.537 139.046 340.785 142.297 342.853 142.592C344.922 142.887 347.027 140.115 347.556 136.4Z" fill="#18100F"/>
<path d="M390.341 142.519C389.823 146.254 387.698 149.002 385.626 148.743C383.553 148.432 382.309 145.216 382.827 141.482C383.346 137.748 385.47 134.999 387.543 135.259C389.616 135.518 390.859 138.785 390.341 142.519Z" fill="#18100F"/>
<path d="M381.947 122.189C380.392 123.486 380.599 127.064 383.035 127.479C385.47 127.946 389.046 128.205 393.243 129.709C397.336 131.161 401.793 134.066 403.814 133.806C405.627 133.547 406.301 131.628 403.71 129.087C401.275 126.701 397.906 124.471 393.709 123.123C389.512 121.774 383.501 120.893 381.947 122.189Z" fill="#FCC28E"/>
<path d="M355.571 118.766C356.711 120.478 355.416 123.797 352.929 123.486C350.442 123.175 346.97 122.397 342.513 122.552C338.161 122.708 333.083 124.16 331.217 123.278C329.559 122.5 329.507 120.426 332.72 118.766C335.725 117.21 339.612 116.069 344.068 116.069C348.472 116.121 354.483 117.107 355.571 118.766Z" fill="#FCC28E"/>
<path d="M409.099 140.445C414.281 135.673 423.504 142.882 420.654 152.84C417.856 162.798 406.974 171.718 401.119 170.836C395.315 170.006 402.104 146.927 409.099 140.445Z" fill="#ED9F80"/>
<path d="M411.379 158.856C411.172 158.856 410.964 158.752 410.757 158.596C410.394 158.285 410.394 157.715 410.705 157.352C413.607 154.292 413.659 149.52 413.659 149.469C413.659 149.002 414.073 148.587 414.54 148.587C415.006 148.587 415.421 149.002 415.421 149.469C415.421 149.676 415.369 154.966 412.001 158.596C411.845 158.752 411.586 158.856 411.379 158.856Z" fill="#B87865"/>
<path d="M326.295 128.672C322.616 122.604 311.786 126.961 311.734 137.333C311.63 147.706 319.61 159.271 325.466 160.101C331.321 160.879 331.217 136.815 326.295 128.672Z" fill="#ED9F80"/>
<path d="M320.128 145.579C319.818 145.579 319.558 145.424 319.403 145.164C319.299 144.957 316.398 140.549 317.175 135.674C317.278 135.207 317.693 134.844 318.211 134.948C318.678 135.051 319.04 135.466 318.937 135.985C318.263 140.134 320.854 144.127 320.906 144.179C321.165 144.594 321.061 145.164 320.647 145.424C320.439 145.528 320.284 145.579 320.128 145.579Z" fill="#B87865"/>
<path opacity="0.2" d="M392.051 91.9531C391.999 91.9531 391.947 91.9531 391.844 91.9531C389.149 91.2789 386.766 89.9305 384.434 88.582C383.449 88.0115 382.465 87.441 381.636 86.6112C380.755 85.7296 380.185 84.6923 379.615 83.655C379.304 83.1364 379.045 82.6178 378.734 82.151C377.076 79.7135 374.381 77.9501 371.479 77.4315C371.065 77.3796 370.806 76.9647 370.858 76.5498C370.909 76.1349 371.324 75.8756 371.739 75.9275C375.055 76.498 378.112 78.5206 379.978 81.2694C380.34 81.788 380.651 82.3585 380.962 82.8771C381.532 83.8625 382.05 84.7442 382.776 85.4703C383.449 86.1445 384.382 86.715 385.263 87.1817C387.491 88.4783 389.771 89.7749 392.258 90.3972C392.673 90.501 392.932 90.9159 392.828 91.3308C392.725 91.6938 392.414 91.9531 392.051 91.9531Z" fill="black"/>
<path opacity="0.2" d="M414.073 123.589C414.022 123.589 413.97 123.589 413.918 123.589C413.503 123.486 413.244 123.123 413.348 122.708C414.592 116.536 412.726 109.846 408.477 105.23C408.166 104.919 408.218 104.452 408.529 104.141C408.84 103.83 409.306 103.881 409.617 104.193C414.229 109.171 416.25 116.38 414.903 123.019C414.747 123.382 414.436 123.589 414.073 123.589Z" fill="black"/>
<path opacity="0.2" d="M418.426 95.7908C418.374 95.7908 418.322 95.7908 418.219 95.7908C415.421 95.0647 412.001 94.183 409.565 91.7973C408.943 91.175 408.425 90.5008 407.907 89.8265C407.752 89.6191 407.544 89.3598 407.389 89.1523C405.679 87.026 402.829 84.1735 398.839 82.9288C398.424 82.8251 398.217 82.3583 398.321 81.9953C398.424 81.5804 398.891 81.3729 399.254 81.4766C402.674 82.5657 405.886 84.8996 408.529 88.2188C408.684 88.4263 408.892 88.6856 409.047 88.893C409.565 89.5672 410.032 90.1377 410.55 90.7082C412.674 92.7827 415.783 93.6125 418.53 94.2868C418.944 94.3905 419.203 94.8054 419.1 95.2203C419.1 95.5833 418.789 95.7908 418.426 95.7908Z" fill="black"/>
<path opacity="0.2" d="M399.616 70.1705C399.565 70.1705 399.565 70.1705 399.513 70.1705C396.196 69.7555 392.88 68.7183 389.927 67.1105C389.667 66.9549 389.408 66.8512 389.149 66.6956C388.32 66.2289 387.491 65.7621 386.662 65.5028C385.678 65.1916 384.589 65.0879 383.605 65.036C380.185 64.8286 376.713 65.0879 373.345 65.8658C372.93 65.9696 372.516 65.7102 372.412 65.2953C372.309 64.8804 372.568 64.4655 372.982 64.3618C376.506 63.5839 380.081 63.2727 383.657 63.4801C384.693 63.532 385.937 63.6357 387.077 64.0506C388.061 64.3618 388.994 64.8804 389.823 65.3472C390.082 65.5028 390.289 65.6065 390.548 65.7621C393.347 67.2661 396.456 68.2515 399.616 68.6146C400.031 68.6664 400.342 69.0295 400.29 69.4444C400.342 69.8593 400.031 70.1705 399.616 70.1705Z" fill="black"/>
<path opacity="0.2" d="M350.804 88.9448C349.25 88.9448 347.643 88.6854 346.089 88.4261C345.674 88.3743 345.415 87.9594 345.467 87.5445C345.519 87.1296 345.933 86.8702 346.348 86.9221C349.561 87.4926 352.877 87.9075 355.261 86.196C357.074 84.8476 357.903 82.5656 358.68 80.1281C358.784 79.7132 359.25 79.5057 359.613 79.6094C360.028 79.7132 360.235 80.1799 360.131 80.543C359.302 83.1361 358.318 85.7811 356.141 87.3889C354.587 88.5817 352.773 88.9448 350.804 88.9448Z" fill="black"/>
<path opacity="0.2" d="M326.968 81.6841C326.813 81.6841 326.606 81.6322 326.45 81.4767C326.139 81.2173 326.087 80.6987 326.398 80.3875C328.886 77.5351 332.772 75.8755 338.316 75.305C339.612 75.1494 340.907 75.0975 342.151 74.9938C345.053 74.8382 348.006 74.6308 350.753 73.8009C354.069 72.8155 358.162 70.1705 358.836 66.0215C358.888 65.6066 359.302 65.3473 359.717 65.3992C360.132 65.451 360.442 65.8659 360.339 66.2808C359.562 71.1559 354.95 74.164 351.167 75.305C348.265 76.1866 345.156 76.3941 342.203 76.5497C340.959 76.6015 339.664 76.7053 338.42 76.8609C333.29 77.3795 329.715 78.8835 327.486 81.4248C327.383 81.5804 327.176 81.6841 326.968 81.6841Z" fill="black"/>
<path opacity="0.2" d="M345.156 64.9322C341.788 64.9322 338.472 64.1024 335.518 62.4428C335.156 62.2354 335 61.7686 335.207 61.4056C335.415 61.0425 335.881 60.8869 336.244 61.0944C339.612 62.9614 343.602 63.7394 347.436 63.2208C347.851 63.1689 348.214 63.4801 348.265 63.895C348.317 64.3099 348.006 64.6729 347.592 64.7248C346.763 64.8804 345.934 64.9322 345.156 64.9322Z" fill="black"/>
<path d="M78.3481 499.439C78.3481 499.439 72.8036 506.752 70.99 518.162C69.3319 528.638 71.1973 538.648 77.3636 540.048C83.5817 541.5 86.7944 538.959 91.0434 532.995C93.1679 529.987 96.1733 524.852 97.9869 521.377C100.992 515.673 105.138 510.486 105.138 510.486L78.3481 499.439Z" fill="#352621"/>
<path d="M191.31 521.533C191.31 521.533 196.751 539.063 195.196 550.525C193.746 561.053 189.082 570.077 182.76 569.662C176.387 569.247 174.055 565.876 171.723 558.926C170.583 555.452 169.184 549.643 168.407 545.805C167.163 539.478 164.728 533.306 164.728 533.306L191.31 521.533Z" fill="#352621"/>
<path d="M70.5236 425.898C70.5236 425.898 70.1609 443.583 72.3373 455.46C74.41 466.714 77.7263 499.906 77.7263 499.906C77.7263 499.906 79.2808 505.767 86.9498 509.086C96.1215 513.028 105.138 510.538 105.138 510.538C109.801 504.885 113.066 497.987 117.418 492.334C120.942 487.77 132.86 468.737 131.254 469.255L70.5236 425.898Z" fill="#A6C9E5"/>
<path d="M208.41 444.88C208.41 444.88 207.218 469.982 205.923 481.339C204.679 492.127 201.622 503.537 199.083 511.939C197.528 517.073 192.865 527.861 192.865 527.861C192.865 527.861 188.357 534.914 180.48 536.47C172.604 538.026 164.676 533.877 164.676 533.877L151.307 470.863L208.41 444.88Z" fill="#A6C9E5"/>
<path d="M115.657 324.61C115.657 324.61 89.1261 317.193 79.5917 318.334C70.0573 319.475 54.0975 329.9 44.2004 348.622C37.1014 362.055 25.7015 413.555 25.7015 413.555C25.7015 413.555 25.857 413.036 16.9962 419.83C8.08358 426.624 10.4672 443.843 17.6698 450.222C26.5824 458.053 42.9567 456.86 49.5894 445.243C58.2429 430.047 65.4455 416.355 65.4455 416.355L70.7309 432.018C70.7309 432.018 73.5291 446.747 82.5453 456.549C86.328 460.646 97.8833 462.461 100.111 464.225C104.309 467.492 115.449 471.589 125.45 471.901C133.586 472.16 140.477 473.301 149.856 472.575C159.235 471.849 179.599 471.641 196.077 465.936C217.167 458.624 201.311 443.22 201.311 443.22C201.311 443.22 210.224 422.268 213.022 409.717C215.82 397.166 223.592 385.808 223.592 385.808L245.822 397.84C245.822 397.84 224.162 424.705 222.608 434.767C220.898 445.865 228.981 448.147 231.261 446.332C234.733 443.635 273.907 415.37 285.618 399.396C290.489 392.758 290.748 388.246 288.779 382.644C286.758 377.043 275.151 366.411 261.056 354.379C248.309 343.488 223.748 326.269 211.882 323.469C200.016 320.668 166.386 315.689 166.386 315.689L115.657 324.61Z" fill="#F3E6E0"/>
<path opacity="0.2" d="M247.066 398.463C246.703 398.463 246.34 398.307 246.185 397.944C245.874 397.425 246.029 396.803 246.548 396.492C250.019 394.366 253.077 393.225 255.978 393.017C256.548 392.965 257.067 393.38 257.118 394.002C257.17 394.573 256.756 395.092 256.134 395.143C253.595 395.351 250.797 396.388 247.636 398.359C247.48 398.411 247.273 398.463 247.066 398.463Z" fill="black"/>
<path opacity="0.2" d="M193.227 458.209C193.02 458.209 192.813 458.157 192.606 458.001C158.872 432.952 136.487 405.568 136.28 405.309C135.917 404.842 135.969 404.168 136.435 403.805C136.902 403.442 137.575 403.493 137.938 403.96C138.145 404.22 160.375 431.448 193.901 456.29C194.367 456.653 194.471 457.275 194.108 457.742C193.849 458.053 193.538 458.209 193.227 458.209Z" fill="black"/>
<path d="M104.827 321.498C104.827 321.498 110.889 377.925 136.435 403.908C136.435 403.908 172.241 369.056 184.159 334.256L104.827 321.498Z" fill="#EA9E82"/>
<path opacity="0.2" d="M66.3781 415.577C66.2227 415.577 66.119 415.577 65.9636 415.526C65.4454 415.318 65.1863 414.696 65.3936 414.177C65.7563 413.244 66.0672 412.466 66.2745 411.688C67.259 408.213 66.7926 404.582 66.3263 400.693C66.0672 398.826 65.8081 396.907 65.7563 394.988C65.6008 390.943 66.3263 386.794 67.7772 383.059C67.9844 382.541 68.6063 382.23 69.1244 382.437C69.6426 382.645 69.9535 383.267 69.7462 383.785C68.399 387.312 67.7254 391.15 67.829 394.884C67.8808 396.699 68.1399 398.566 68.399 400.433C68.9172 404.323 69.4353 408.368 68.2954 412.258C68.0363 413.244 67.6217 414.177 67.3108 414.955C67.2072 415.318 66.7926 415.577 66.3781 415.577Z" fill="black"/>
<path d="M222.66 434.819C221.779 435.337 220.794 435.597 219.862 435.441C218.514 435.182 210.534 432.433 205.456 432.018C205.456 432.018 203.591 437.412 201.881 440.316C200.171 443.169 195.87 449.807 193.227 450.896C190.585 451.933 179.807 456.082 179.392 457.172C178.978 458.209 179.496 460.335 180.48 460.335C181.413 460.335 183.641 460.335 183.641 460.335C183.641 460.335 184.056 463.084 192.761 462.462C192.761 462.462 196.803 467.233 198.565 466.144C200.378 465.107 203.85 462.41 203.85 462.41C203.85 462.41 204.575 464.017 206.078 463.551C207.581 463.136 215.716 459.09 217.789 458.001C219.913 456.964 223.696 453.645 225.199 451.83C226.235 450.533 229.5 447.836 231.261 446.332C225.613 445.658 221.571 440.938 222.66 434.819Z" fill="#EA9E82"/>
<path d="M183.641 461.009C183.33 461.009 183.019 460.802 182.968 460.491C182.864 460.128 183.071 459.713 183.486 459.609C183.538 459.609 189.704 457.897 190.637 457.586C191.258 457.379 195.248 455.097 197.58 453.697C197.943 453.489 198.357 453.593 198.565 453.956C198.772 454.319 198.668 454.734 198.306 454.941C197.269 455.564 192.087 458.624 191.103 458.935C190.118 459.246 184.108 460.905 183.9 460.957C183.797 461.009 183.693 461.009 183.641 461.009Z" fill="#B67867"/>
<path d="M192.761 463.136C192.502 463.136 192.243 462.98 192.087 462.721C191.932 462.358 192.087 461.943 192.45 461.788L201.881 457.742C202.244 457.587 202.658 457.742 202.814 458.105C202.969 458.468 202.814 458.883 202.451 459.039L193.02 463.084C192.916 463.084 192.865 463.136 192.761 463.136Z" fill="#B67867"/>
<path d="M203.85 463.084C203.591 463.084 203.384 462.98 203.228 462.721C203.021 462.358 203.125 461.943 203.487 461.736L208.047 459.091C208.41 458.883 208.824 458.987 209.032 459.35C209.239 459.713 209.135 460.128 208.773 460.335L204.213 462.98C204.109 463.084 203.954 463.084 203.85 463.084Z" fill="#B67867"/>
<path d="M37.9304 433.522C39.2258 430.151 35.0286 419.104 35.8577 416.355C36.6868 413.606 40.1067 409.094 41.6613 403.182C42.4385 400.226 42.0758 395.61 42.0758 392.135C42.0758 388.608 42.4903 386.223 42.8012 384.252C43.2676 380.881 40.0549 381.088 38.6558 382.8C37.2568 384.563 35.9095 388.764 35.9613 391.046C36.065 393.328 36.8422 398.307 35.0804 398.566C33.3186 398.774 28.6551 390.683 27.4633 388.194C26.2715 385.704 21.4524 373.776 19.4834 371.857C18.2916 370.664 16.478 370.768 16.3225 372.635C16.1671 374.502 21.0897 388.194 20.3125 388.712C19.5352 389.179 19.0688 388.764 18.3952 386.949C17.7216 385.134 13.3689 374.605 11.6071 373.101C10.3117 372.012 9.17169 372.479 8.80897 373.879C8.39443 375.28 13.3171 390.372 13.4725 391.202C13.628 392.083 13.3171 392.55 12.6953 391.565C12.0735 390.527 7.56535 379.117 5.69992 377.613C3.88631 376.109 2.33178 376.836 2.3836 379.014C2.43542 380.985 8.86079 396.906 8.49806 397.477C8.13534 398.047 7.82444 397.477 7.20263 396.336C6.58082 395.195 4.04176 388.401 2.53905 387.519C1.45089 386.845 0.259085 387.675 0.0518146 389.075C-0.155455 390.475 0.36272 397.633 3.21268 403.389C5.54447 408.109 7.4099 413.866 10.8817 416.977C13.9389 419.726 14.6643 424.757 15.1307 428.335C15.5971 431.914 13.8871 434.922 16.1671 438.137C17.4107 439.901 23.7842 442.287 29.2251 440.886C33.6295 439.693 37.3604 435.026 37.9304 433.522Z" fill="#EA9E82"/>
<path opacity="0.2" d="M51.4547 429.062C51.1438 429.062 50.8848 428.958 50.6775 428.699C46.273 423.564 39.3295 422.268 39.2776 422.216C38.7076 422.112 38.3449 421.542 38.4486 420.971C38.5522 420.401 39.1222 420.037 39.6922 420.141C40.0031 420.193 47.4648 421.593 52.3356 427.298C52.6984 427.765 52.6465 428.387 52.232 428.802C51.9211 428.958 51.662 429.062 51.4547 429.062Z" fill="black"/>
<path opacity="0.2" d="M96.8987 459.609C96.4842 459.609 96.0697 459.35 95.9142 458.935C92.857 451.103 90.7324 442.961 89.4888 434.663C89.3852 434.092 89.7997 433.574 90.3697 433.47C90.9397 433.366 91.4579 433.781 91.5615 434.352C92.7533 442.494 94.8778 450.481 97.8314 458.157C98.0387 458.675 97.7796 459.298 97.2096 459.505C97.1578 459.609 97.0542 459.609 96.8987 459.609Z" fill="black"/>
<path d="M138.56 327.203C132.912 327.462 127.523 329.796 121.875 328.136C120.061 327.618 118.351 326.736 116.434 326.632C111.926 326.373 108.35 330.729 107.21 335.086C105.759 340.635 107.936 349.245 104.257 353.912C103.117 355.364 101.355 356.246 99.5413 356.609C96.8468 357.128 93.9968 356.661 91.665 355.209C90.2141 354.327 88.9705 353.082 87.3642 352.564C83.2188 351.163 79.1252 354.846 74.7725 355.105C72.6998 355.209 70.6271 354.586 68.8653 353.497C65.3417 351.371 62.8545 347.533 62.3363 343.384C61.5073 336.382 65.8599 330.159 67.5699 323.624C69.3835 316.675 68.4508 309.362 71.8189 302.723C75.1871 296.033 81.8197 291.729 87.1051 286.387C91.0432 282.445 94.2559 277.777 96.6395 272.799C99.0749 267.664 99.2304 262.478 100.681 257.032C105.086 240.747 120.372 226.796 135.865 220.936C142.394 218.446 149.545 217.357 156.489 218.291C158.769 218.602 161.826 220.262 164.002 220.21C164.054 220.21 184.107 219.847 198.824 239.243C209.498 253.246 215.82 272.902 211.312 290.432C209.239 298.471 205.456 308.377 211.622 315.741C214.11 318.697 217.944 320.409 220.017 323.676C222.608 327.825 221.416 333.53 218.203 337.16C214.939 340.791 210.068 342.554 205.249 343.177C195.3 344.421 185.61 341.206 176.076 338.768C168.044 336.746 159.65 336.642 152.343 332.441C147.524 329.692 144.726 326.943 138.56 327.203Z" fill="#5C2A1C"/>
<path d="M130.425 229.545C146.436 220.573 159.598 223.27 163.329 224.048C167.111 224.826 180.273 227.471 191.466 241.992C202.295 256.047 203.124 273.162 197.58 294.063C191.984 314.963 184.263 331.715 173.433 342.762C162.603 353.809 145.089 359.202 136.28 357.439C127.471 355.624 113.687 345.199 108.661 331.767C103.687 318.282 101.51 296.604 104.516 275.133C107.521 253.713 114.983 238.258 130.425 229.545Z" fill="#EA9E82"/>
<path d="M139.907 358.58C138.508 358.58 137.264 358.476 136.124 358.217C126.486 356.246 112.858 345.251 107.936 332.026C107.78 331.611 107.987 331.144 108.402 330.989C108.817 330.833 109.283 331.041 109.438 331.455C114.102 344.006 127.419 354.794 136.435 356.661C144.881 358.372 161.929 352.875 172.863 342.191C175.557 339.546 176.957 338.042 176.957 337.99C177.267 337.679 177.786 337.627 178.097 337.938C178.407 338.249 178.459 338.768 178.148 339.079C178.097 339.131 176.749 340.635 174.003 343.332C164.002 353.134 149.441 358.58 139.907 358.58Z" fill="#B67867"/>
<path d="M132.549 291.884C131.824 295.359 129.751 297.796 127.834 297.433C125.916 297.018 124.932 293.906 125.657 290.484C126.383 287.009 128.455 284.571 130.373 284.934C132.238 285.297 133.223 288.409 132.549 291.884Z" fill="#160D0B"/>
<path d="M172.241 299.922C171.516 303.397 169.443 305.835 167.526 305.472C165.609 305.057 164.624 301.945 165.349 298.522C166.075 295.047 168.148 292.61 170.065 292.973C171.93 293.388 172.915 296.499 172.241 299.922Z" fill="#160D0B"/>
<path d="M146.85 320.357C146.073 320.357 145.348 320.201 144.83 319.994C144.415 319.838 144.208 319.372 144.415 318.957C144.571 318.542 145.037 318.334 145.451 318.542C145.762 318.697 148.82 319.735 150.737 316.156C151.669 314.445 152.55 310.347 153.276 304.228C153.846 299.56 154.105 295.411 154.105 295.359C154.157 294.892 154.519 294.581 154.986 294.581C155.452 294.633 155.763 294.996 155.763 295.463C155.763 295.515 155.452 299.715 154.882 304.435C154.105 310.814 153.172 315.015 152.188 316.934C150.685 319.579 148.56 320.357 146.85 320.357Z" fill="#B67867"/>
<path d="M140.218 276.584C141.151 278.14 140.166 280.733 137.679 280.681C135.451 280.63 130.01 278.814 126.02 278.762C122.185 278.711 117.729 279.955 116.952 279.437C116.123 278.918 117.107 277.207 120.061 275.91C122.807 274.665 125.502 273.058 130.114 273.317C134.725 273.472 139.285 275.028 140.218 276.584Z" fill="#5C2A1C"/>
<path d="M163.847 281.408C162.448 282.549 162.5 285.297 164.883 286.127C167.008 286.853 172.759 286.957 176.49 288.253C180.117 289.498 183.848 292.143 184.781 291.988C185.714 291.78 185.403 289.861 183.071 287.579C180.895 285.453 178.615 283.223 174.003 281.667C169.443 280.059 165.246 280.267 163.847 281.408Z" fill="#5C2A1C"/>
<path d="M107.78 283.379C104.671 277.518 94.3077 280.993 93.6859 290.691C93.0122 300.39 99.8003 311.644 105.241 312.733C110.682 313.77 111.926 291.262 107.78 283.379Z" fill="#EA9E82"/>
<path d="M190.429 300.182C195.559 295.981 203.746 303.242 200.585 312.422C197.425 321.601 186.75 329.329 181.361 328.188C175.92 327.047 183.537 305.783 190.429 300.182Z" fill="#EA9E82"/>
<path d="M130.217 228.922C146.384 219.846 159.649 222.595 163.484 223.373C167.267 224.151 180.584 226.796 191.932 241.473C202.917 255.684 203.746 272.954 198.098 294.062C197.58 296.085 196.284 299.56 196.025 299.456C178.666 290.017 187.942 273.525 181.154 261.907C174.314 250.186 162.914 252.572 162.914 252.572C151.151 246.815 141.047 252.364 131.046 271.917C120.786 291.884 103.531 280.578 103.531 280.578L103.427 280.163C103.583 278.452 103.79 276.688 104.049 274.977C107.107 253.298 114.62 237.739 130.217 228.922Z" fill="#5C2A1C"/>
<path d="M191.569 317.453C191.362 317.453 191.154 317.349 190.999 317.193C190.688 316.882 190.688 316.364 191.051 316.052C193.953 313.304 194.264 308.843 194.264 308.843C194.315 308.377 194.678 308.065 195.144 308.065C195.611 308.117 195.922 308.48 195.922 308.947C195.922 309.155 195.559 314.082 192.191 317.245C191.984 317.349 191.776 317.453 191.569 317.453Z" fill="#B67867"/>
<path d="M101.096 298.834C100.837 298.834 100.526 298.678 100.422 298.419C100.318 298.263 97.8312 293.959 98.8676 289.447C98.9712 289.032 99.3857 288.721 99.8521 288.824C100.267 288.928 100.578 289.343 100.474 289.81C99.593 293.699 101.821 297.537 101.873 297.589C102.08 297.952 101.977 298.471 101.562 298.678C101.407 298.782 101.251 298.834 101.096 298.834Z" fill="#B67867"/>
<path opacity="0.4" d="M197.787 275.34C197.373 275.34 197.01 274.977 196.958 274.562C196.958 274.406 196.595 259.418 188.875 249.045C181.257 238.776 165.66 239.865 165.505 239.865C165.039 239.917 164.676 239.554 164.624 239.139C164.572 238.673 164.935 238.309 165.35 238.258C165.505 238.258 169.547 237.946 174.625 238.984C181.413 240.384 186.75 243.496 190.17 248.06C198.202 258.899 198.565 273.887 198.565 274.51C198.616 274.977 198.254 275.34 197.787 275.34Z" fill="black"/>
<path opacity="0.4" d="M163.121 229.234C163.018 229.234 162.914 229.234 162.759 229.182C162.655 229.13 149.752 223.27 139.648 227.782C139.233 227.989 138.767 227.782 138.56 227.367C138.353 226.952 138.56 226.485 138.974 226.278C144.622 223.736 150.996 224.255 155.349 225.137C160.012 226.07 163.329 227.626 163.432 227.678C163.847 227.885 164.002 228.352 163.847 228.767C163.743 229.026 163.432 229.234 163.121 229.234Z" fill="black"/>
<path opacity="0.4" d="M104.36 280.63C103.946 280.63 103.583 280.319 103.583 279.904C103.531 279.437 103.842 279.074 104.308 279.022C122.237 277.051 133.844 242.355 133.948 242.044C134.104 241.629 134.57 241.37 134.984 241.525C135.399 241.681 135.658 242.147 135.503 242.562C135.451 242.666 132.497 251.638 127.264 260.714C120.165 273.058 112.496 279.8 104.516 280.682C104.412 280.63 104.412 280.63 104.36 280.63Z" fill="black"/>
<path opacity="0.4" d="M102.236 258.225C102.132 258.225 102.028 258.225 101.925 258.173C101.51 258.017 101.303 257.551 101.51 257.136C106.174 245.985 117.885 240.125 118.403 239.865C118.817 239.658 119.284 239.814 119.491 240.228C119.698 240.643 119.543 241.11 119.128 241.318C119.025 241.369 107.469 247.178 103.013 257.758C102.806 258.017 102.547 258.225 102.236 258.225Z" fill="black"/>
<path d="M131.823 324.61C131.15 325.751 136.124 331.3 141.047 332.337C145.97 333.323 152.602 330.366 152.706 328.966C152.758 327.514 147.265 327.566 142.394 326.58C137.212 325.491 132.497 323.417 131.823 324.61Z" fill="white"/>
<path d="M131.823 324.61C132.497 323.469 137.212 325.491 142.394 326.529C145.244 327.099 148.301 327.307 150.322 327.67C151.773 327.929 152.706 328.292 152.706 328.914C152.706 329.07 147.939 330.055 141.824 328.811C136.953 327.825 131.772 324.662 131.823 324.61Z" fill="white"/>
<path opacity="0.4" d="M74.2545 339.858C74.0472 339.858 73.8917 339.806 73.7363 339.65C73.4254 339.339 73.3736 338.82 73.6845 338.509C73.7363 338.457 78.3999 333.012 80.7835 322.639C80.8871 322.224 81.3016 321.913 81.768 322.017C82.1825 322.12 82.4934 322.535 82.3898 323.002C79.8507 333.79 75.1354 339.339 74.9281 339.546C74.7208 339.754 74.5135 339.858 74.2545 339.858Z" fill="black"/>
<path opacity="0.4" d="M91.1469 354.794C90.9914 354.794 90.7842 354.742 90.6287 354.638C86.0688 351.06 87.2606 340.687 87.3124 340.22C87.3642 339.754 87.7788 339.443 88.1933 339.494C88.6597 339.546 88.9706 339.961 88.9188 340.376C88.9188 340.48 87.8306 350.282 91.6651 353.342C92.0278 353.601 92.0796 354.12 91.8205 354.483C91.6133 354.69 91.3542 354.794 91.1469 354.794Z" fill="black"/>
<path d="M631.085 534.499C631.085 534.499 637.458 544.82 638.547 552.236C639.635 559.653 641.448 571.944 635.127 572.307C628.805 572.618 626.007 569.506 623.675 563.335C621.291 557.163 621.758 549.643 617.146 540.982L631.085 534.499Z" fill="#F3E6E0"/>
<path d="M523.045 534.447C523.045 534.447 519.781 541.863 518.796 548.139C517.812 554.414 512.889 571.633 505.583 568.832C498.277 566.031 499.054 556.281 500.038 552.34C501.023 548.398 509.107 526.667 509.107 526.667L523.045 534.447Z" fill="#F3E6E0"/>
<path d="M544.964 512.872C544.964 512.872 530.041 530.557 523.356 536.314C516.672 542.019 508.433 540.307 506.153 536.314C503.873 532.321 503.147 494.824 503.147 494.824L544.964 512.872Z" fill="#2D3E44"/>
<path d="M627.717 489.015L632.639 536.366C632.691 541.552 627.458 543.004 617.25 542.589L583.465 516.036L627.717 489.015Z" fill="#2D3E44"/>
<path d="M449.672 394.469C449.672 394.469 397.803 414.488 392.206 425.016C386.61 435.545 400.756 449.651 409.617 455.927C431.018 470.967 472.627 488.652 472.627 488.652L478.742 475.894L440.138 445.399L462.471 430.618L449.672 394.469Z" fill="#EA9E82"/>
<path d="M689.017 386.586C689.017 386.586 720.522 389.543 730.056 396.129C739.591 402.716 737.259 414.541 734.979 418.482C732.699 422.424 711.091 444.517 698.759 453.956C683.991 465.314 657.719 481.651 657.719 481.651L649.273 470.345L684.25 431.292L689.017 386.586Z" fill="#EA9E82"/>
<path d="M592.17 374.087C592.17 374.087 627.406 373.361 651.916 377.718C661.554 379.429 683.265 380.985 686.219 382.489C689.172 383.993 692.955 393.899 693.94 403.234C694.924 412.622 692.748 429.684 682.436 433.626C672.073 437.568 635.334 439.383 635.334 439.383C630.411 463.966 628.909 494.409 628.909 494.513C628.753 498.714 623.312 501.048 620.048 502.344C610.876 505.923 604.036 512.924 594.036 515.154C586.107 516.918 577.92 516.71 569.837 516.192C554.862 515.258 539.99 513.287 525.326 510.176C520.403 509.138 514.444 507.894 510.506 504.523C506.464 501.1 506.619 496.38 505.428 491.401C503.666 483.985 495.531 471.175 493.769 463.758L480.918 448.251C480.918 448.251 451.123 454.216 442.262 453.23C433.401 452.245 432.106 450.585 424.23 437.775C416.353 424.965 419.618 405.257 426.199 402.923C432.78 400.589 477.394 380.881 492.525 379.585C507.604 378.288 578.542 375.488 578.542 375.488L592.17 374.087Z" fill="#AA5743"/>
<path d="M578.386 375.591L594.139 376.11C594.139 376.11 582.998 420.868 561.805 439.175C541.233 423.201 524.496 386.275 524.496 386.275L578.386 375.591Z" fill="#EA9E82"/>
<path d="M478.742 475.894C479.985 476.62 481.695 477.087 482.939 476.568C484.183 476.102 491.385 471.901 496.204 470.5C496.204 470.5 497.966 475.531 500.142 477.969C502.319 480.406 508.848 485.852 511.594 486.371C514.34 486.889 525.585 488.808 526.155 489.793C526.776 490.727 526.673 492.905 525.74 493.061C524.807 493.216 522.683 493.683 522.683 493.683C522.683 493.683 522.787 496.432 514.288 497.469C514.288 497.469 511.283 502.863 509.366 502.137C507.449 501.463 503.562 499.544 503.562 499.544C503.562 499.544 503.148 501.203 501.645 501.1C500.142 500.996 491.489 498.61 489.261 497.988C487.032 497.365 482.732 494.928 480.918 493.476C479.156 492.024 472.627 488.601 472.627 488.601L478.742 475.894Z" fill="#EA9E82"/>
<path d="M522.683 494.357C522.372 494.357 516.258 493.891 515.273 493.787C514.288 493.683 508.64 491.712 507.552 491.298C507.189 491.194 506.982 490.779 507.138 490.416C507.241 490.053 507.656 489.845 508.019 490.001C510.558 490.883 514.807 492.335 515.48 492.387C516.413 492.49 522.735 492.957 522.787 492.957C523.149 493.009 523.46 493.32 523.46 493.683C523.357 494.098 523.046 494.357 522.683 494.357Z" fill="#B67867"/>
<path d="M514.289 498.143C514.237 498.143 514.185 498.143 514.133 498.143L504.288 496.069C503.925 495.965 503.666 495.602 503.77 495.239C503.873 494.876 504.236 494.617 504.599 494.72L514.444 496.795C514.807 496.899 515.066 497.262 514.962 497.625C514.91 497.936 514.651 498.143 514.289 498.143Z" fill="#B67867"/>
<path d="M503.562 500.27C503.51 500.27 503.407 500.27 503.355 500.218L498.432 498.507C498.07 498.403 497.862 497.988 498.018 497.625C498.121 497.262 498.536 497.054 498.899 497.21L503.821 498.921C504.184 499.025 504.391 499.44 504.236 499.803C504.132 500.062 503.873 500.27 503.562 500.27Z" fill="#B67867"/>
<path d="M649.273 470.293C648.185 471.226 646.63 472.004 645.283 471.797C643.936 471.589 636.111 468.841 631.085 468.426C631.085 468.426 630.359 473.716 628.649 476.516C626.991 479.317 621.654 485.904 619.063 486.993C616.472 488.03 605.85 492.127 605.435 493.164C605.021 494.202 605.539 496.276 606.472 496.276C607.404 496.276 609.581 496.276 609.581 496.276C609.581 496.276 609.995 498.973 618.545 498.351C618.545 498.351 622.535 503.018 624.297 501.981C626.059 500.944 629.479 498.299 629.479 498.299C629.479 498.299 630.204 499.855 631.655 499.44C633.106 499.025 641.137 495.031 643.21 493.994C645.283 492.957 649.014 489.69 650.516 487.926C651.967 486.163 657.719 481.547 657.719 481.547L649.273 470.293Z" fill="#EA9E82"/>
<path d="M609.632 497.002C609.322 497.002 609.062 496.795 608.959 496.483C608.855 496.12 609.062 495.705 609.477 495.602C609.529 495.602 615.591 493.942 616.524 493.631C617.146 493.424 621.032 491.193 623.364 489.845C623.675 489.638 624.141 489.741 624.349 490.104C624.556 490.467 624.452 490.882 624.09 491.09C623.053 491.712 617.923 494.72 616.99 495.031C616.058 495.342 610.099 496.95 609.892 497.054C609.736 497.002 609.684 497.002 609.632 497.002Z" fill="#B67867"/>
<path d="M618.597 499.077C618.338 499.077 618.079 498.921 617.975 498.662C617.82 498.299 617.975 497.884 618.338 497.728L627.613 493.735C627.976 493.579 628.39 493.735 628.546 494.098C628.701 494.461 628.546 494.876 628.183 495.031L618.908 499.025C618.752 499.077 618.649 499.077 618.597 499.077Z" fill="#B67867"/>
<path d="M629.53 499.077C629.271 499.077 629.064 498.973 628.909 498.714C628.701 498.402 628.805 497.936 629.168 497.728L633.624 495.135C633.935 494.928 634.401 495.031 634.609 495.394C634.816 495.706 634.712 496.172 634.349 496.38L629.893 498.973C629.738 499.025 629.634 499.077 629.53 499.077Z" fill="#B67867"/>
<path opacity="0.2" d="M500.039 475.842C499.676 475.842 499.365 475.583 499.365 475.22C498.484 466.714 497.448 456.446 497.655 455.72C497.759 455.357 498.173 455.149 498.536 455.253C498.899 455.356 499.106 455.72 499.002 456.083C498.899 457.12 500.039 468.27 500.764 475.064C500.816 475.427 500.505 475.79 500.142 475.842C500.09 475.842 500.09 475.842 500.039 475.842Z" fill="black"/>
<path opacity="0.2" d="M633.054 439.59L622.431 438.864C622.069 438.812 621.758 438.501 621.758 438.086C621.81 437.723 622.121 437.412 622.535 437.412L633.106 438.138C633.469 438.19 633.779 438.501 633.779 438.916C633.728 439.331 633.417 439.59 633.054 439.59Z" fill="black"/>
<path d="M603.829 345.459C604.036 343.229 603.311 341.31 603.155 339.132C602.948 335.294 603.777 331.197 603.933 327.359C604.347 319.112 604.295 310.866 603.829 302.62C603.466 296.085 602.43 288.825 597.248 284.883C596.16 284.053 594.968 283.431 593.984 282.497C591.704 280.267 591.341 276.689 589.372 274.199C586.159 270.102 580.148 270.206 575.019 269.169C571.236 268.391 567.66 266.783 563.93 265.746C560.199 264.708 556.157 264.19 552.53 265.538C550.768 266.212 549.006 267.301 547.141 266.938C546.415 266.783 545.69 266.368 545.016 266.109C541.855 264.812 538.176 265.694 535.119 267.25C530.352 269.687 526.673 273.681 521.543 275.288C516.361 276.896 510.869 276.792 505.687 278.296C503.718 278.867 501.541 280.06 501.386 282.082C501.282 283.431 502.163 284.831 501.697 286.128C501.334 287.113 500.298 287.58 499.417 288.202C494.235 291.833 494.909 299.664 495.22 305.161C495.686 312.993 496.619 320.824 498.173 328.5C500.09 337.887 505.79 359.151 505.79 359.254C505.998 360.084 546.571 353.549 549.317 353.135C560.199 351.579 571.132 350.075 582.014 348.519C586.211 347.948 590.408 347.326 594.606 346.755C596.834 346.444 600.254 346.6 602.275 345.666C602.741 345.459 603.363 345.511 603.829 345.459Z" fill="#8D4838"/>
<path d="M510.817 299.249C519.315 285.92 529.419 280.267 547.244 278.296C565.018 276.274 576.055 280.06 587.04 291.055C598.181 302.257 599.269 322.795 599.425 338.043C599.58 353.342 600.824 367.345 597.248 380C593.621 392.654 586.781 401.834 581.703 405.931C576.78 409.924 568.956 413.555 562.531 414.281C556.105 415.007 548.747 413.296 542.995 410.288C536.415 406.865 527.502 398.981 521.077 386.69C514.651 374.45 512.889 363.04 509.625 348.104C506.36 333.219 501.386 314.03 510.817 299.249Z" fill="#EA9E82"/>
<path d="M560.769 415.162C553.773 415.162 542.477 411.532 537.036 407.331C536.726 407.072 536.622 406.605 536.881 406.294C537.14 405.983 537.606 405.879 537.917 406.138C543.669 410.547 556.002 414.333 562.375 413.606C568.231 412.932 575.951 409.561 581.133 405.412C581.444 405.153 581.91 405.205 582.169 405.516C582.429 405.827 582.377 406.294 582.066 406.553C576.677 410.91 568.645 414.384 562.531 415.059C562.012 415.11 561.442 415.162 560.769 415.162Z" fill="#B67867"/>
<path d="M546.623 381.452C546.208 383.423 552.53 387.468 557.763 387.105C564.241 386.638 568.179 383.474 567.453 380.363C567.091 378.962 562.064 381.452 557.297 381.659C552.582 381.867 546.882 380.363 546.623 381.452Z" fill="white"/>
<path d="M545.431 276.222C559.888 274.614 575.381 276.274 586.263 286.854C599.425 299.612 602.223 318.646 603.984 335.916C604.14 337.316 604.036 339.131 602.689 339.546C599.943 340.428 594.243 334.204 593.776 332.493C592.792 328.966 591.807 325.44 590.046 322.224C588.284 319.009 585.745 316.104 582.377 314.652C579.889 313.563 577.091 313.355 574.397 313.148C569.526 312.785 564.551 312.422 560.147 310.347C556.571 308.688 553.566 305.939 549.991 304.228C548.332 303.398 541.907 301.998 540.663 303.709C540.249 304.331 540.301 305.939 540.145 306.665C539.938 307.754 539.627 308.843 539.264 309.881C538.539 311.8 537.451 313.615 535.793 314.86C532.373 317.401 527.709 316.986 523.46 316.519C517.553 315.897 512.682 316.623 508.899 321.602C507.811 323.054 506.878 324.662 506.516 326.477C506.101 328.603 506.516 330.781 506.775 332.908C507.138 335.76 509.832 345.251 509.573 348.104C509.418 349.763 507.863 348.104 506.257 347.689C500.609 346.185 502.37 329.9 502.526 325.543C502.733 318.697 503.562 311.8 505.635 305.265C509.107 294.27 516.413 285.557 526.984 280.837C532.787 278.296 539.109 276.948 545.431 276.222Z" fill="#8D4838"/>
<path d="M555.017 373.724C554.913 373.724 554.861 373.724 554.81 373.724C554.395 373.672 554.084 373.309 554.136 372.894C554.188 372.479 554.551 372.168 554.965 372.22C555.121 372.22 558.8 372.427 559.577 368.019C559.94 365.996 559.473 361.588 558.281 355.261C557.349 350.437 556.261 346.185 556.261 346.133C556.157 345.718 556.416 345.303 556.779 345.199C557.193 345.096 557.608 345.355 557.711 345.718C557.711 345.77 558.8 350.074 559.732 354.95C561.028 361.536 561.442 366.048 561.028 368.278C560.095 373.465 555.95 373.724 555.017 373.724Z" fill="#B67867"/>
<path d="M537.088 351.994C537.503 355.676 536.207 358.84 534.135 359.047C532.114 359.254 530.093 356.506 529.678 352.823C529.264 349.141 530.559 345.978 532.632 345.77C534.704 345.563 536.674 348.363 537.088 351.994Z" fill="#160D0B"/>
<path d="M579.268 347.274C579.682 350.956 578.387 354.12 576.314 354.327C574.293 354.535 572.272 351.786 571.858 348.104C571.443 344.421 572.739 341.258 574.811 341.05C576.884 340.791 578.853 343.592 579.268 347.274Z" fill="#160D0B"/>
<path d="M563.878 330.937C562.841 332.649 564.292 335.864 566.676 335.449C569.111 335.035 572.48 334.101 576.884 334.101C581.133 334.049 586.211 335.294 588.025 334.36C589.579 333.531 589.579 331.508 586.367 330.004C583.309 328.604 579.475 327.67 575.122 327.877C570.718 328.033 564.914 329.226 563.878 330.937Z" fill="#8D4838"/>
<path d="M540.663 333.53C542.063 334.983 541.389 338.406 538.953 338.561C536.518 338.717 532.994 338.561 528.694 339.495C524.548 340.428 519.833 342.762 517.916 342.192C516.206 341.725 515.739 339.754 518.589 337.576C521.232 335.553 524.807 333.79 529.056 333.012C533.357 332.234 539.264 332.13 540.663 333.53Z" fill="#8D4838"/>
<path d="M596.627 340.687C600.409 334.879 610.876 339.443 610.669 349.608C610.462 359.773 602.326 370.923 596.523 371.546C590.771 372.168 591.548 348.519 596.627 340.687Z" fill="#EA9E82"/>
<path d="M603.052 357.491C602.948 357.491 602.793 357.439 602.689 357.387C602.326 357.18 602.171 356.713 602.378 356.35C604.399 352.668 603.259 348.052 603.259 348.052C603.155 347.637 603.415 347.222 603.777 347.118C604.192 347.015 604.606 347.274 604.71 347.637C604.762 347.844 606.005 352.823 603.674 357.076C603.57 357.335 603.311 357.491 603.052 357.491Z" fill="#B67867"/>
<path d="M514.962 349.867C509.988 345.044 500.764 351.838 503.251 361.692C505.738 371.546 516.102 380.622 521.906 379.948C527.657 379.273 521.646 356.402 514.962 349.867Z" fill="#EA9E82"/>
<path d="M513.045 367.397C512.889 367.397 512.682 367.345 512.527 367.189C512.371 367.034 508.537 363.611 508.122 358.839C508.07 358.424 508.381 358.061 508.796 358.01C509.21 357.958 509.573 358.269 509.625 358.684C510.039 362.885 513.511 366.048 513.563 366.048C513.874 366.308 513.926 366.774 513.615 367.086C513.459 367.345 513.252 367.397 513.045 367.397Z" fill="#B67867"/>
<path opacity="0.2" d="M568.075 298.886C565.38 298.886 562.841 298.16 560.406 297.486C559.37 297.175 558.23 296.863 557.245 296.293C556.209 295.671 555.38 294.841 554.551 294.011C554.136 293.596 553.773 293.181 553.359 292.818C551.234 290.899 548.229 289.914 545.379 290.173C544.912 290.225 544.498 289.862 544.446 289.395C544.394 288.928 544.757 288.513 545.223 288.462C548.54 288.202 552.011 289.343 554.499 291.521C554.965 291.936 555.38 292.403 555.794 292.818C556.571 293.596 557.245 294.322 558.126 294.841C558.955 295.307 559.94 295.619 560.872 295.878C563.308 296.552 565.795 297.226 568.282 297.226C568.748 297.226 569.163 297.589 569.163 298.108C569.163 298.575 568.8 298.99 568.334 298.99C568.179 298.886 568.127 298.886 568.075 298.886Z" fill="black"/>
<path opacity="0.2" d="M597.041 323.573C596.575 323.573 596.212 323.21 596.16 322.743C595.849 316.623 592.429 310.711 587.248 307.391C586.833 307.132 586.729 306.613 586.988 306.199C587.248 305.784 587.766 305.68 588.18 305.939C593.828 309.57 597.507 315.949 597.87 322.639C597.922 323.158 597.559 323.521 597.041 323.573Z" fill="black"/>
<path opacity="0.2" d="M594.295 296.085C591.445 296.085 587.921 296.085 585.019 294.426C584.294 294.011 583.62 293.492 582.947 292.974C582.739 292.818 582.532 292.611 582.273 292.455C580.148 290.847 576.728 288.877 572.687 288.669C572.22 288.669 571.858 288.254 571.858 287.736C571.858 287.269 572.272 286.906 572.79 286.906C576.366 287.113 579.993 288.514 583.309 291.055C583.517 291.21 583.776 291.418 583.983 291.573C584.605 292.04 585.227 292.507 585.848 292.922C588.336 294.374 591.497 294.374 594.243 294.374C594.709 294.374 595.124 294.789 595.124 295.256C595.176 295.671 594.761 296.085 594.295 296.085Z" fill="black"/>
<path opacity="0.2" d="M543.928 278.711C543.617 278.711 543.306 278.556 543.151 278.245C542.943 277.83 543.099 277.311 543.513 277.052C546.674 275.444 549.991 274.251 553.462 273.577C554.499 273.37 555.691 273.162 556.882 273.266C557.919 273.318 558.903 273.577 559.836 273.836C560.095 273.888 560.354 273.992 560.613 274.044C563.619 274.77 566.831 274.925 569.889 274.511C570.355 274.459 570.821 274.77 570.873 275.237C570.925 275.703 570.614 276.17 570.148 276.222C566.831 276.689 563.515 276.481 560.25 275.703C559.991 275.652 559.681 275.548 559.421 275.496C558.489 275.237 557.66 275.029 556.779 274.977C555.742 274.925 554.706 275.081 553.825 275.237C550.509 275.859 547.296 277 544.343 278.556C544.187 278.711 544.083 278.711 543.928 278.711Z" fill="black"/>
<path opacity="0.2" d="M523.305 310.866C522.838 310.866 522.476 310.503 522.424 310.089C522.372 309.622 522.735 309.207 523.201 309.155C526.362 308.896 529.627 308.481 531.388 306.302C532.787 304.643 532.995 302.257 533.15 299.768C533.15 299.301 533.565 298.938 534.083 298.938C534.549 298.938 534.912 299.353 534.912 299.872C534.756 302.568 534.497 305.369 532.787 307.443C530.559 310.14 526.932 310.659 523.357 310.918C523.357 310.866 523.357 310.866 523.305 310.866Z" fill="black"/>
<path opacity="0.2" d="M503.821 305.213C503.666 305.213 503.562 305.161 503.407 305.11C502.992 304.902 502.785 304.384 503.044 303.969C504.702 300.649 508.07 298.056 513.2 296.137C514.392 295.671 515.584 295.308 516.776 294.893C519.574 293.959 522.268 293.129 524.652 291.625C527.554 289.862 530.766 286.387 530.352 282.342C530.3 281.875 530.663 281.46 531.129 281.408C531.595 281.356 532.01 281.719 532.062 282.186C532.528 287.061 528.849 291.107 525.533 293.129C522.942 294.685 520.092 295.619 517.294 296.552C516.154 296.915 514.91 297.33 513.77 297.745C509.055 299.508 506.049 301.79 504.547 304.695C504.443 305.006 504.132 305.213 503.821 305.213Z" fill="black"/>
<path opacity="0.2" d="M512.268 285.401C510.609 285.401 509.003 285.194 507.397 284.779C506.93 284.675 506.671 284.209 506.775 283.742C506.879 283.275 507.345 283.016 507.811 283.12C511.438 284.053 515.377 283.794 518.9 282.393C519.367 282.238 519.833 282.445 520.04 282.86C520.196 283.327 519.988 283.794 519.574 284.001C517.242 284.935 514.755 285.401 512.268 285.401Z" fill="black"/>
<path d="M313.755 656.273C313.755 656.273 310.801 663.793 312.045 673.854C313.185 683.138 317.123 691.073 322.719 690.814C328.316 690.502 330.44 687.598 332.565 681.53C333.653 678.522 334.948 673.44 335.622 670.068C336.814 664.519 339.042 659.125 339.042 659.125L313.755 656.273Z" fill="#2D3E44"/>
<path d="M317.538 657.57C317.538 657.57 315.465 664.416 317.33 670.224C319.144 676.033 325.103 676.033 328.834 673.44C332.616 670.795 335.466 658.866 335.466 658.866L317.538 657.57Z" fill="#EA9E82"/>
<path d="M407.441 654.095C407.441 654.095 414.954 667.838 414.799 678.004C414.644 687.339 411.534 695.689 405.938 695.948C400.342 696.259 398.425 692.629 395.678 686.872C394.279 683.968 392.31 678.315 391.844 674.944C390.859 667.838 391.637 662.704 391.637 662.704L407.441 654.095Z" fill="#2D3E44"/>
<path d="M287.691 593.052C287.691 593.052 293.391 611.152 298.054 620.591C302.51 629.564 310.024 639.418 310.024 639.418L313.288 656.844C313.288 656.844 315.983 661.408 323.289 662.341C331.995 663.482 338.99 659.177 338.99 659.177C341.581 653.265 342.669 646.627 345.001 640.87C346.866 636.15 351.737 615.664 350.493 616.546L287.691 593.052Z" fill="#F3E6E0"/>
<path d="M409.98 661.667C409.98 661.667 412.053 668.513 410.187 674.321C408.374 680.13 402.415 680.13 398.684 677.537C394.953 674.944 392.051 662.964 392.051 662.964L409.98 661.667Z" fill="#EA9E82"/>
<path d="M420.447 595.438C420.447 595.438 421.069 608.819 419.514 618.258C417.96 627.697 412.312 636.513 412.312 636.513C412.312 636.513 414.281 642.322 412.933 649.894C412.104 654.51 410.291 660.474 410.291 660.474C410.291 660.474 409.306 665.712 402.311 666.335C395.264 666.957 391.636 663.119 391.636 663.119L375.729 619.917L420.447 595.438Z" fill="#F3E6E0"/>
<path d="M195.352 518.525C195.352 518.525 261.575 563.439 264.891 566.965C271.42 573.811 283.131 588.074 283.131 588.074L280.436 554.052L195.352 518.525Z" fill="#EA9E82"/>
<path d="M514.289 549.955L421.898 603.062L426.095 575.886L514.289 549.955Z" fill="#EA9E82"/>
<path d="M322.253 487.771C322.253 487.771 298.831 481.651 290.489 482.74C282.146 483.881 271.109 486.889 263.026 486.267C254.942 485.645 228.774 479.629 222.815 480.303C216.908 480.977 189.963 483.933 188.046 494.513C186.128 505.093 189.445 517.748 197.269 521.171C205.145 524.594 270.798 555.867 273.545 562.402C276.343 568.885 277.224 579.62 284.167 591.601C289.763 601.247 300.127 610.375 310.387 615.354C320.595 620.333 341.944 617.688 349.354 619.036C356.763 620.384 376.402 627.178 391.17 623.029C405.886 618.829 418.323 607.782 422.623 603.01C426.924 598.239 432.831 583.925 438.894 579.05C444.957 574.175 475.84 562.454 501.749 556.904C527.709 551.355 529.057 530.299 522.061 523.66C515.066 517.022 503.925 510.954 494.391 509.709C484.856 508.464 474.285 504.782 471.384 503.174C468.482 501.567 428.997 493.217 418.53 490.935C408.063 488.601 366.557 479.317 366.557 479.317L322.253 487.771Z" fill="#4191CA"/>
<path opacity="0.2" d="M388.165 577.234C387.958 577.234 387.75 577.131 387.595 576.975C381.014 568.262 355.675 560.742 353.499 560.12C352.048 560.379 339.146 562.765 320.491 574.797C320.284 574.901 320.077 574.952 319.869 574.849C319.662 574.797 319.507 574.589 319.455 574.434C319.351 574.123 308.832 542.694 307.9 520.03C307.381 506.753 308.521 495.395 311.475 485.437C311.579 485.074 311.941 484.866 312.304 484.97C316.968 486.007 320.699 486.941 321.476 487.148L365.676 478.695C365.78 478.695 365.883 478.695 365.987 478.695C365.987 478.695 383.45 482.585 398.58 485.956C398.839 486.007 399.047 486.267 399.098 486.526C399.979 491.609 402.674 509.398 400.031 524.386C397.026 541.708 388.89 576.405 388.839 576.716C388.787 576.975 388.579 577.182 388.32 577.234C388.269 577.234 388.217 577.234 388.165 577.234ZM353.551 558.667C353.603 558.667 353.655 558.667 353.758 558.719C353.81 558.719 360.753 560.742 368.474 563.802C377.957 567.588 384.434 571.374 387.802 575.004C389.357 568.366 396.041 539.426 398.684 524.127C401.171 509.761 398.736 492.802 397.803 487.2C383.605 484.037 367.49 480.458 365.832 480.043L321.631 488.497C321.528 488.497 321.424 488.497 321.32 488.497C321.269 488.497 317.59 487.512 312.667 486.422C309.921 496.121 308.781 507.116 309.351 519.926C310.18 540.308 318.885 567.899 320.543 573.085C330.648 566.602 338.938 563.076 344.172 561.209C350.027 559.134 353.344 558.667 353.499 558.667H353.551Z" fill="black"/>
<path d="M325.88 532.062C333.342 547.776 353.292 561.779 353.292 561.779C353.292 561.779 371.842 550.266 380.6 535.485C388.942 521.378 395.989 503.641 398.736 493.579C387.699 497.002 370.081 506.96 358.577 505.871C349.095 504.989 340.337 501.048 331.218 498.714C326.968 497.625 318.678 486.37 317.123 490.468C315.776 493.994 318.885 517.436 325.88 532.062Z" fill="#EA9E82"/>
<path d="M353.292 561.831C353.292 561.831 371.842 550.318 380.6 535.537C381.17 534.603 381.688 533.67 382.258 532.684C375.884 536.729 367.904 538.856 360.235 539.426C351.737 540.101 343.032 539.375 335.156 536.159C330.751 534.344 327.538 531.699 324.481 528.794C324.948 529.884 325.414 530.973 325.88 532.01C333.342 547.776 353.292 561.831 353.292 561.831Z" fill="#EA9E82"/>
<path d="M350.338 385.964C345.416 386.275 340.493 387.105 335.726 388.505C315.776 394.314 298.21 409.458 292.303 429.632C289.297 439.901 288.468 450.689 288.727 461.372C288.883 466.87 289.297 472.523 291.474 477.606C294.116 483.881 299.194 488.86 304.065 493.579C308.47 497.832 313.755 500.685 318.729 504.107C332.306 513.391 354.069 509.346 369.2 507.738C374.589 507.167 381.791 507.271 386.662 504.678C398.995 498.195 409.358 486.007 413.815 472.834C414.695 470.189 415.421 467.44 415.887 464.692C419.722 443.22 411.068 420.764 396.818 404.79C389.305 396.336 382.413 390.58 371.272 387.831C364.484 386.171 357.385 385.549 350.338 385.964Z" fill="#8B4835"/>
<path d="M382.828 399.396C367.904 387.831 354.121 388.557 350.183 388.764C346.244 388.972 332.461 389.646 318.833 402.715C305.671 415.318 302.2 432.64 304.687 454.734C307.174 476.879 312.511 495.031 321.838 507.945C331.166 520.859 348.162 529.001 357.437 528.535C366.661 528.068 382.309 519.562 389.408 506.597C396.559 493.631 402.052 471.9 402.259 449.651C402.466 427.454 397.285 410.598 382.828 399.396Z" fill="#EA9E82"/>
<path d="M356.608 529.52C351.841 529.52 345.571 527.549 339.249 524.126C331.943 520.133 325.466 514.584 321.113 508.516C320.802 508.101 320.906 507.53 321.32 507.219C321.735 506.908 322.305 507.012 322.616 507.427C331.684 519.925 348.214 528.12 357.385 527.653C366.816 527.186 381.999 518.214 388.631 506.182C388.89 505.715 389.46 505.559 389.875 505.819C390.341 506.078 390.497 506.649 390.238 507.063C383.19 519.822 367.645 528.95 357.489 529.468C357.178 529.52 356.919 529.52 356.608 529.52Z" fill="#B67867"/>
<path d="M371.22 462.462C371.428 466.092 373.189 468.945 375.21 468.841C377.231 468.737 378.682 465.729 378.527 462.099C378.319 458.468 376.558 455.616 374.537 455.72C372.516 455.823 371.065 458.831 371.22 462.462Z" fill="#160D0B"/>
<path d="M329.611 464.588C329.818 468.219 331.58 471.071 333.601 470.967C335.622 470.864 337.073 467.856 336.917 464.225C336.71 460.595 334.948 457.742 332.927 457.846C330.906 457.95 329.456 461.01 329.611 464.588Z" fill="#160D0B"/>
<path d="M353.24 489.43C351.323 489.43 348.68 488.497 347.385 484.918C346.607 482.792 346.348 478.384 346.504 471.745C346.659 466.87 346.97 462.514 346.97 462.462C347.022 461.943 347.436 461.58 347.955 461.632C348.473 461.684 348.836 462.099 348.784 462.617C348.784 462.669 348.421 466.974 348.317 471.797C348.11 479.784 348.628 482.999 349.095 484.296C350.494 488.238 353.862 487.511 354.017 487.46C354.535 487.356 355.002 487.667 355.105 488.134C355.209 488.652 354.95 489.119 354.432 489.275C354.121 489.379 353.706 489.43 353.24 489.43Z" fill="#B67867"/>
<path d="M365.728 445.762C364.536 447.214 365.158 449.963 367.697 450.326C369.977 450.637 375.781 449.6 379.874 450.118C383.812 450.637 388.113 452.556 388.994 452.193C389.927 451.778 389.201 449.911 386.403 448.095C383.812 446.436 381.325 444.413 376.558 443.895C371.791 443.428 366.92 444.309 365.728 445.762Z" fill="#8B4835"/>
<path d="M340.959 447.058C342.203 448.458 341.736 451.259 339.197 451.674C336.969 452.089 331.062 451.311 327.02 452.037C323.134 452.763 318.937 454.889 318.004 454.526C317.071 454.163 317.693 452.244 320.44 450.326C322.979 448.51 325.621 446.591 330.544 445.658C335.518 444.828 339.716 445.658 340.959 447.058Z" fill="#8B4835"/>
<path d="M397.699 457.587C401.741 452.089 411.742 457.224 410.913 467.181C410.084 477.139 401.482 487.563 395.782 487.823C390.082 488.082 392.258 464.951 397.699 457.587Z" fill="#EA9E82"/>
<path d="M311.061 462.047C306.501 457.016 297.07 463.136 298.883 472.938C300.697 482.74 310.387 492.231 316.035 491.92C321.787 491.608 317.227 468.841 311.061 462.047Z" fill="#EA9E82"/>
<path d="M383.139 398.774C368.06 387.053 354.121 387.831 350.183 388.039C346.193 388.246 332.254 388.92 318.47 402.093C311.579 408.68 309.091 416.563 304.635 424.498C299.971 432.693 295.878 441.976 297.277 451.674C298.158 457.742 302.148 462.047 308.573 461.113C315.879 460.024 321.579 454.216 325.725 448.148C327.538 445.503 329.145 442.754 331.217 440.368C334.016 437.101 337.591 434.456 341.581 432.796C345.312 431.24 349.354 430.462 352.825 428.336C356.401 426.106 359.095 422.424 360.08 418.275C361.064 423.72 364.381 428.44 367.593 433.004C369.251 435.338 370.91 437.671 372.982 439.59C375.055 441.509 377.439 442.961 379.822 444.414C385.729 447.992 393.087 453.023 399.565 455.253C401.741 455.979 402.829 455.097 404.798 453.904C407.234 452.452 407.596 449.081 407.441 446.281C407.026 436.738 404.073 427.143 398.736 419.156C393.865 411.792 390.445 404.427 383.139 398.774Z" fill="#8B4835"/>
<path d="M307.433 479.577C307.174 479.577 306.863 479.473 306.708 479.213C303.754 475.427 304.169 470.345 304.169 470.137C304.221 469.619 304.687 469.256 305.153 469.308C305.672 469.36 306.034 469.826 305.982 470.293C305.982 470.345 305.62 474.909 308.107 478.072C308.418 478.487 308.366 479.058 307.952 479.369C307.796 479.525 307.589 479.577 307.433 479.577Z" fill="#B67867"/>
<path d="M402.259 474.442C402.052 474.442 401.845 474.39 401.689 474.234C401.275 473.923 401.223 473.353 401.534 472.938C401.586 472.886 404.384 469.307 404.125 465.314C404.073 464.795 404.487 464.38 405.006 464.329C405.524 464.277 405.938 464.692 405.99 465.21C406.353 469.982 403.14 473.975 402.985 474.131C402.777 474.338 402.518 474.442 402.259 474.442Z" fill="#B67867"/>
<path d="M386.714 378.184C381.791 377.147 376.299 378.444 373.034 382.23C371.635 383.837 370.703 385.808 369.822 387.727C369.355 388.764 368.837 389.802 368.733 390.943C368.423 393.432 369.925 395.766 371.635 397.633C375.988 402.249 382.931 405.879 389.305 406.294C390.859 406.398 392.466 406.294 393.969 405.724C398.062 404.116 400.549 400.278 400.705 395.973C400.964 388.194 395.368 380.674 387.958 378.496C387.543 378.392 387.129 378.288 386.714 378.184Z" fill="#8B4835"/>
<path opacity="0.2" d="M360.08 418.949C359.976 418.949 359.924 418.949 359.821 418.897C359.251 418.741 358.888 418.171 359.043 417.6C360.339 412.362 360.442 406.813 359.354 401.523C359.251 400.952 359.613 400.382 360.183 400.278C360.753 400.174 361.323 400.537 361.427 401.108C362.567 406.709 362.463 412.569 361.064 418.119C361.012 418.637 360.546 418.949 360.08 418.949Z" fill="black"/>
<path opacity="0.2" d="M305.931 422.89C305.775 422.89 305.62 422.838 305.516 422.786C304.998 422.527 304.739 421.905 304.946 421.386C307.226 416.148 311.32 411.428 317.071 407.383C322.253 403.753 328.108 401.056 333.29 398.722C333.808 398.463 334.482 398.722 334.689 399.24C334.948 399.759 334.689 400.433 334.171 400.641C329.093 402.923 323.341 405.568 318.315 409.094C312.874 412.932 309.04 417.341 306.915 422.216C306.708 422.631 306.345 422.89 305.931 422.89Z" fill="black"/>
<path opacity="0.2" d="M303.703 461.632C303.599 461.632 303.495 461.632 303.392 461.58C302.822 461.372 302.511 460.802 302.718 460.231C305.827 450.844 309.299 440.16 317.071 432.692C317.486 432.277 318.16 432.277 318.574 432.744C318.989 433.159 318.989 433.833 318.522 434.248C311.112 441.353 307.692 451.778 304.687 460.906C304.583 461.372 304.169 461.632 303.703 461.632Z" fill="black"/>
<path opacity="0.2" d="M392.155 402.56C391.792 402.56 391.481 402.404 391.274 402.093C389.771 399.915 388.268 397.633 386.092 396.129C385.056 395.403 383.812 394.832 382.62 394.262L372.62 389.698C372.101 389.439 371.842 388.816 372.101 388.298C372.36 387.779 372.982 387.52 373.5 387.779L383.501 392.343C384.797 392.913 386.092 393.536 387.336 394.366C389.823 396.077 391.533 398.618 393.036 400.848C393.347 401.315 393.243 401.989 392.777 402.352C392.569 402.508 392.362 402.56 392.155 402.56Z" fill="black"/>
<path opacity="0.2" d="M403.192 441.146C403.037 441.146 402.933 441.146 402.777 441.042C401.275 440.42 399.617 439.953 398.01 439.538C396.041 438.968 393.968 438.397 392.051 437.515C384.382 433.989 379.978 426.261 375.729 418.015C375.47 417.496 375.677 416.822 376.195 416.563C376.713 416.303 377.387 416.511 377.646 417.03C381.688 424.913 385.885 432.329 392.932 435.545C394.694 436.374 396.559 436.893 398.58 437.412C400.238 437.878 401.897 438.345 403.555 439.019C404.125 439.227 404.384 439.849 404.125 440.42C404.021 440.938 403.607 441.146 403.192 441.146Z" fill="black"/>
<path opacity="0.2" d="M400.031 424.55C399.824 424.55 399.565 424.498 399.409 424.342C396.663 422.32 394.59 419.415 393.554 416.148C393.399 415.578 393.71 414.955 394.279 414.8C394.849 414.644 395.471 414.955 395.627 415.526C396.508 418.378 398.321 420.868 400.705 422.631C401.171 422.994 401.275 423.668 400.912 424.135C400.653 424.394 400.342 424.55 400.031 424.55Z" fill="black"/>
<path d="M344.897 496.276C345.053 494.772 350.96 496.328 356.038 496.172C361.479 495.965 366.401 494.098 366.35 495.446C366.298 496.691 361.22 500.84 356.142 501.203C350.286 501.618 344.69 497.728 344.897 496.276Z" fill="white"/>
</g>
<defs>
<clipPath id="clip0_107_25">
<rect width="737" height="696" fill="white"/>
</clipPath>
</defs>
</svg>
