<svg width="1920" height="874" viewBox="0 0 1920 874" fill="none" xmlns="http://www.w3.org/2000/svg">
<path fill-rule="evenodd" clip-rule="evenodd" d="M0 870H216C253.558 870.22 271.18 870.076 291.827 869.906C321.025 869.666 356.271 869.377 462.5 870C553.172 870.532 621.205 870.266 689.237 870C757.269 869.734 825.301 869.468 915.974 870L1460.01 873.19C1550.68 873.721 1617.09 872.658 1683.5 871.595L1683.5 871.595C1749.92 870.532 1816.33 869.468 1907 870C1911.28 870.025 1915.62 870.091 1920 870.197L1920 0.972208C1793.89 4.55266 1667.03 134.679 1540.17 264.805L1540.14 264.843C1513.89 291.765 1487.65 318.686 1461.41 344.486C1279.02 520.489 1096.96 642.311 915.974 579.805C806.607 542.034 697.61 441.032 588.614 340.029C517.239 273.889 445.864 207.749 374.385 159.364C236.433 67.697 98.0752 45.4113 0 39.7608V870Z" fill="#6049DF" fill-opacity="0.08"/>
</svg>
