<svg width="1920" height="1080" viewBox="0 0 1920 1080" fill="none" xmlns="http://www.w3.org/2000/svg">
<g clip-path="url(#clip0_218_2)">
<rect width="1920" height="1080" fill="url(#paint0_linear_218_2)"/>
<g clip-path="url(#clip1_218_2)">
<path d="M-168.272 352.968L-77.5992 353.5C13.0734 354.032 194.419 355.095 375.187 454.576C555.944 555.906 736.151 751.033 917.198 802.922C1098.25 854.812 1280.19 754.223 1462.39 608.814C1644.61 460.633 1827.09 267.633 2008.01 341.239C2188.92 417.617 2368.26 760.602 2549.3 812.492C2730.35 864.381 2913.16 615.934 3004.55 494.945L3095.94 372.107L3091.61 1111.4L3000.93 1110.87C2910.26 1110.33 2728.92 1109.27 2547.57 1108.21C2366.23 1107.14 2184.88 1106.08 2003.54 1105.02C1822.19 1103.95 1640.85 1102.89 1459.5 1101.83C1278.15 1100.76 1096.81 1099.7 915.465 1098.64C734.119 1097.58 552.774 1096.51 371.429 1095.45C190.084 1094.39 8.73871 1093.32 -81.9339 1092.79L-172.606 1092.26L-168.272 352.968Z" fill="#6049DF" fill-opacity="0.4"/>
</g>
</g>
<defs>
<linearGradient id="paint0_linear_218_2" x1="-37.9999" y1="-72.9998" x2="2110" y2="1283" gradientUnits="userSpaceOnUse">
<stop stop-color="#715AFF"/>
<stop offset="1" stop-color="#A682FF"/>
</linearGradient>
<clipPath id="clip0_218_2">
<rect width="1920" height="1080" fill="white"/>
</clipPath>
<clipPath id="clip1_218_2">
<rect width="3153.62" height="1478.61" fill="white" transform="translate(-618.69 -381.48) rotate(0.335939)"/>
</clipPath>
</defs>
</svg>
