<svg width="1920" height="217" viewBox="0 0 1920 217" fill="none" xmlns="http://www.w3.org/2000/svg">
<path d="M340.966 89.2696C355.909 81.4954 367.584 91.6018 379.414 97.3547C383.929 99.5314 386.886 100.775 391.556 99.5314C406.967 95.4889 420.198 98.5985 429.226 112.747C431.561 116.635 434.207 117.412 438.566 117.256C549.242 114.147 659.917 111.037 770.593 108.238C844.688 106.373 918.938 104.973 993.033 102.952C1216.41 96.8882 1439.78 95.3334 1663.16 96.4218C1665.34 96.4218 1667.67 96.1108 1671.41 95.9553C1663.47 78.8522 1660.67 59.1059 1637.32 55.6853C1631.4 54.9078 1633.27 50.5543 1633.74 46.8227C1634.52 41.8473 1634.67 37.4938 1641.99 37.0273C1660.2 35.9389 1670.47 46.6673 1679.81 62.2155C1682.15 42.0028 1684.79 23.9668 1693.36 7.33011C1695.85 2.35466 1698.34 -1.37693 1705.5 0.488863C1714.37 2.97659 1717.02 6.55269 1712.04 14.7933C1707.05 23.0339 1704.72 32.2074 1702.7 41.3808C1701.3 43.2466 1701.14 45.2679 1702.7 46.8227C1703.47 47.7556 1704.41 46.5118 1705.19 46.0453C1711.72 37.1828 1719.2 29.2532 1729 23.8113C1733.52 21.3236 1739.12 20.3907 1740.52 25.5216C1741.92 30.6525 1747.53 37.6493 1738.34 42.3137C1717.64 52.5756 1714.99 73.5658 1708.92 92.3792C1708.3 94.4005 1708.92 96.4218 1711.41 96.4218C1716.55 96.4218 1722.15 98.754 1726.2 93.4676C1729.16 89.5805 1732.12 85.538 1735.54 82.1173C1744.57 73.2548 1757.64 72.011 1767.45 79.9406C1771.34 83.0502 1773.99 83.5167 1778.5 82.1173C1787.22 79.4741 1795.16 81.4954 1800.14 89.736C1804.81 97.5101 1811.35 98.9095 1820.06 98.9095C1850.57 99.065 1880.93 100.309 1911.44 100.775C1917.67 100.931 1920 102.486 1920 109.171C1919.84 196.864 1919.84 284.711 1920 372.404C1920 378.468 1917.98 380.644 1912.06 379.867C1910.19 379.711 1908.33 379.867 1906.3 379.867C1266.69 379.867 627.072 379.867 -12.5423 379.867C-27.4858 379.867 -32 375.202 -32 360.432C-31.8443 285.489 -31.6887 210.702 -31.533 135.759C-31.533 120.988 -31.533 120.988 -16.4338 121.144C62.3311 121.299 140.629 121.299 219.083 121.299C223.597 121.299 228.111 121.299 233.248 121.299C232.314 115.546 227.644 116.013 224.842 114.147C222.663 112.747 219.238 111.97 220.639 108.549C221.729 105.906 224.531 105.284 227.488 105.44C236.517 106.217 245.078 109.016 255.352 113.991C248.814 101.086 240.408 93.1566 231.38 86.0044C229.045 84.1386 226.554 82.4283 224.219 80.5625C221.885 78.6967 218.771 76.3645 220.951 73.0993C222.818 70.3006 225.776 72.9439 228.267 73.2548C245.389 76.0535 257.22 87.2483 269.517 101.086C270.918 88.3367 269.984 77.9193 265.159 67.9684C262.979 63.4594 260.644 59.2614 258.621 54.7524C257.687 52.7311 256.13 50.5543 258.309 48.5331C260.333 46.6673 262.512 48.2221 264.536 49.155C276.211 54.4414 283.994 63.9258 290.998 75.898C296.135 64.0813 297.536 53.0421 298.159 41.8473C298.315 38.4267 296.914 32.8293 302.05 32.8293C305.475 32.8293 307.343 37.9602 307.81 41.3808C309.367 51.0208 309.989 60.8162 311.079 70.6116C310.3 72.3219 309.833 74.3432 310.923 75.898C312.635 78.0748 314.036 76.0535 315.437 74.9651C317.15 73.4103 318.862 72.1664 320.885 71.2335C324.933 67.502 329.291 65.0142 335.985 67.3465C331.159 75.898 325.555 84.1386 322.753 93.6231C321.508 97.3547 323.376 97.5101 326.022 96.2663C330.848 93.7786 335.985 91.4463 340.966 89.2696Z" fill="#92C67A"/>
</svg>
