<svg width="1920" height="1097" viewBox="0 0 1920 1097" fill="none" xmlns="http://www.w3.org/2000/svg">
<rect y="469" width="1920" height="843" fill="#F0EBFB"/>
<g clip-path="url(#clip0_184_533)">
<path d="M-8 422.1L37.9239 429.868C83.8478 438.222 175.428 452.878 267.811 429.868C359.257 405.978 451.239 344.422 542.283 273.633C634.667 203.722 727.05 124.578 818.094 140.7C910.076 156.822 1001.52 265.278 1093.91 273.633C1185.49 281.4 1277.33 187.6 1369.72 195.368C1460.9 203.722 1553.14 312.178 1644.19 351.75C1736.44 391.322 1827.62 359.078 1874.48 343.983L1920 328.3V469H1874.08C1828.15 469 1736.57 469 1644.19 469C1552.74 469 1460.76 469 1369.72 469C1277.33 469 1184.95 469 1093.91 469C1001.92 469 910.478 469 818.094 469C726.514 469 634.667 469 542.283 469C451.105 469 358.856 469 267.811 469C175.562 469 84.3833 469 37.5222 469H-8V422.1Z" fill="#F0EBFB"/>
</g>
<defs>
<clipPath id="clip0_184_533">
<rect width="1928" height="469" fill="white" transform="translate(-8)"/>
</clipPath>
</defs>
</svg>
