<?xml version="1.0" encoding="utf-8"?>
<!-- Generator: Adobe Illustrator 24.0.1, SVG Export Plug-In . SVG Version: 6.00 Build 0)  -->
<svg version="1.1" id="Layer_1" xmlns="http://www.w3.org/2000/svg" xmlns:xlink="http://www.w3.org/1999/xlink" x="0px" y="0px"
	 viewBox="0 0 1936 329" style="enable-background:new 0 0 1936 329;" xml:space="preserve">
<style type="text/css">
	.st0{fill-rule:evenodd;clip-rule:evenodd;fill:#F3F0F8;}
</style>
<path class="st0" d="M1934.2,403H0l0-95.2c71.4-36.9,143-86.7,214.1-140.9c10.4-7.7,20.8-15.5,31.2-23.3
	C351.6,63.8,457.7-15.9,561.1,3.9c55,10.4,109.5,47.5,164.1,84.6c59.3,40.3,118.6,80.7,178.7,86.9c57.1,5.6,114.7-20.6,172.4-46.9
	c57.9-26.4,115.9-52.8,173.8-47.2c67.6,7.1,135.1,58.5,202.5,109.9c46.2,35.2,92.2,70.3,138.2,91.1c110.5,49.3,220.8,14.9,281.3-4.1
	c2.3-0.7,4.6-1.4,6.8-2.1l57.2-19L1934.2,403z"/>
</svg>
