<svg width="1920" height="280" viewBox="0 0 1920 280" fill="none" xmlns="http://www.w3.org/2000/svg">
<path d="M-49.2747 7.29134L18.7246 7.69004C86.724 8.08874 222.723 8.88615 358.495 48.3217C494.262 88.4829 629.814 165.468 765.696 186.22C901.578 206.971 1037.81 167.86 1174.15 111.154C1310.49 53.3593 1446.93 -22.0312 1582.76 7.24598C1718.59 37.6115 1853.8 172.645 1989.68 193.396C2125.57 214.148 2262.14 116.989 2330.42 69.6796L2398.7 21.6446L2397 311.884L2329 311.486C2261 311.087 2125 310.289 1989 309.492C1853 308.695 1717.01 307.897 1581.01 307.1C1445.01 306.302 1309.01 305.505 1173.01 304.708C1037.01 303.91 901.014 303.113 765.015 302.315C629.017 301.518 493.018 300.721 357.019 299.923C221.021 299.126 85.0222 298.328 17.0229 297.93L-50.9764 297.531L-49.2747 7.29134Z" fill="#4A49B6" fill-opacity="0.15"/>
</svg>
