<svg width="1936" height="403" viewBox="0 0 1936 403" fill="none" xmlns="http://www.w3.org/2000/svg">
<path fill-rule="evenodd" clip-rule="evenodd" d="M1934.17 403L2.43342e-05 403L3.07301e-05 307.755C71.413 270.896 142.975 221.097 214.144 166.839C224.55 159.119 234.957 151.307 245.363 143.496C351.571 63.7691 457.654 -15.8633 561.106 3.90342C616.104 14.3115 670.615 51.3966 725.174 88.5148C784.461 128.85 843.806 169.223 903.895 175.447C960.984 181.038 1018.55 154.802 1076.25 128.509C1134.16 102.119 1192.19 75.6708 1250 81.2883C1317.6 88.3716 1385.11 139.835 1452.5 191.204C1498.65 226.376 1544.73 261.503 1590.74 282.313C1701.23 331.641 1811.51 297.169 1872.06 278.243C1874.39 277.515 1876.64 276.81 1878.82 276.134L1935.99 257.115L1934.17 403Z" fill="#F3F0F8"/>
</svg>
