<svg width="687" height="360" viewBox="0 0 687 360" fill="none" xmlns="http://www.w3.org/2000/svg">
<rect width="687" height="360" fill="#FE95AE"/>
<path d="M0 0.202681H687V356.526H0V0.202681Z" fill="#FE95AE"/>
<path d="M262.2 61.7674C266.5 68.3989 272 74.3376 277.5 79.9794C277.8 80.2763 278.1 80.3753 278.4 80.3753C278.5 80.3753 278.6 80.3753 278.6 80.3753C278.8 80.3753 279.1 80.2763 279.3 80.1773C286.6 75.5254 293.6 70.4775 299.7 64.2418C305.5 58.4021 310.9 50.7807 312.2 42.4665C313.1 36.8248 311.4 30.886 307.2 26.9269C304.4 24.3535 300.8 22.8688 297.1 22.8688C295.8 22.8688 294.5 23.0667 293.2 23.4626C289.3 24.6504 286.3 27.2238 284.1 30.4901C282.3 26.234 279.1 22.6708 274.6 20.7902C272.8 19.9984 270.9 19.7015 269 19.7015C266 19.7015 263.1 20.5923 260.6 22.2749C255.5 25.8381 253.8 32.3707 253.9 38.3094C254.2 46.8216 257.7 54.7399 262.2 61.7674ZM265.5 22.8688C266.6 22.4729 267.8 22.2749 269 22.2749C272.7 22.2749 276.4 24.0565 278.9 26.8279C280.7 28.8075 282 31.183 282.7 33.7564C282.9 34.4493 283.4 34.8452 284 34.8452C284.5 34.8452 284.9 34.5483 285.2 34.0534C287.8 29.4014 292.1 25.7391 297.5 25.7391C298 25.7391 298.6 25.7391 299.2 25.8381C304.4 26.531 308.3 30.886 309.5 35.736C311.4 43.3573 307.2 50.9787 302.8 56.9174C297.4 64.1428 290.2 69.8836 282.8 74.9315C281.5 75.8223 280.2 76.6141 278.9 77.5049C268 66.3203 255.7 52.3644 256.9 35.835C257.1 30.2922 259.8 24.7494 265.5 22.8688Z" fill="#FF83A0" fill-opacity="0.56"/>
<path d="M610 340.986C618.5 348.508 629.5 352.17 640.5 354.051C647.8 355.338 655.2 355.635 662.6 355.635C665.8 355.635 669.1 355.536 672.3 355.437C672.8 355.437 673.2 355.239 673.5 354.942C673.8 354.645 674.1 354.348 674.2 353.853C676.1 342.57 677.4 331.286 676.7 319.805C676 308.917 673.4 296.94 666.4 288.23C661.9 282.787 655.2 279.124 648.1 279.124C647.6 279.124 647.1 279.124 646.6 279.223C639.8 279.718 633.7 283.578 630.7 289.715C628.4 294.466 628.3 299.712 629.4 304.76C626.6 303.77 623.6 303.275 620.6 303.275C617.4 303.275 614.3 303.869 611.3 305.255C605.3 308.026 601.1 313.668 600.3 320.101C599.1 328.317 604.1 335.839 610 340.986ZM604.9 316.142C607.5 310.105 614.3 306.739 620.7 306.739H620.8C624.3 306.739 627.8 307.729 630.9 309.214C631.2 309.412 631.6 309.412 631.9 309.412C633.1 309.412 633.9 308.323 633.5 306.937C631 299.613 631.5 291.2 637.8 286.053C640.7 283.677 644.2 282.688 647.9 282.688C651 282.688 654.2 283.479 657 284.964C666.3 289.913 670.1 300.801 672 310.402C674.4 322.081 673.6 334.255 671.9 345.935C671.6 348.013 671.3 349.993 671 352.071C668.2 352.17 665.3 352.17 662.4 352.17C643.7 352.17 623.3 349.894 610 336.235C604.8 330.89 601.8 323.269 604.9 316.142Z" fill="#FF83A0" fill-opacity="0.56"/>
<path d="M121 65.9244C119.6 74.3376 121.7 82.7508 124.9 90.4711C128 97.7956 132.3 104.526 136.8 111.059C137 111.356 137.3 111.554 137.6 111.653C137.7 111.653 137.9 111.752 138.1 111.752C138.3 111.752 138.5 111.751 138.6 111.653C146.6 108.287 154.4 104.526 161.5 99.4782C168.2 94.6282 174.9 88.0956 177.6 80.1773C179.4 74.8325 178.9 68.5969 175.4 64.0439C172.7 60.3816 168.4 58.1051 163.8 58.1051C163.3 58.1051 162.7 58.1051 162.2 58.2041C158.2 58.699 154.8 60.7776 152 63.549C150.9 58.9959 148.5 54.9378 144.4 52.3644C142 50.8797 139.3 50.0879 136.5 50.0879C134.4 50.0879 132.3 50.5828 130.3 51.4736C124.7 53.948 121.9 60.0847 121 65.9244ZM136.6 52.4633C141 52.4633 145.1 55.1358 147.4 58.798C148.8 61.0745 149.6 63.6479 149.9 66.3203C150 67.1122 150.6 67.6071 151.2 67.6071C151.6 67.6071 152 67.4091 152.3 67.0132C155.2 63.45 159.4 60.7776 163.9 60.7776C165.1 60.7776 166.3 60.9755 167.5 61.3714C172.5 62.9551 175.6 68.003 176 72.9519C176.6 80.7712 171.1 87.6008 165.7 92.7476C159.1 98.9833 151 103.338 142.8 107.1C141.4 107.693 139.9 108.386 138.5 108.98C129.7 96.1129 120.1 80.1774 124.1 64.1428C125.5 58.699 129.1 53.7501 135 52.7603C135.5 52.5623 136 52.4633 136.6 52.4633Z" fill="#FF83A0" fill-opacity="0.56"/>
<path d="M441.5 306.739C452.6 317.231 465.5 325.644 478.5 333.76C479 334.057 479.4 334.156 479.9 334.156C480 334.156 480.2 334.156 480.3 334.156C480.9 334.156 481.5 333.859 482 333.365C493.4 321.388 504.2 308.818 512.7 294.466C520.7 280.906 527.3 264.376 525.9 248.342C524.9 237.553 519.1 227.161 509.4 221.717C505 219.242 500.2 217.956 495.3 217.956C490.6 217.956 485.9 219.143 481.7 221.519C475 225.379 470.7 231.615 467.9 238.642C462.5 231.516 455 226.27 445.8 224.785C444.3 224.587 442.9 224.488 441.4 224.488C433.4 224.488 425.7 227.952 420.4 233.891C412.5 242.799 412.4 255.864 415.3 266.752C419.6 282.49 429.8 295.654 441.5 306.739ZM429.6 232.703C433.1 230.427 437.2 229.437 441.3 229.437C446.6 229.437 451.9 231.12 456.3 233.99C460.6 236.761 464 240.82 466.5 245.175C467.1 246.164 468 246.659 468.8 246.659C469.9 246.659 470.9 245.966 471.3 244.581C474.3 233.891 481.7 224.092 493.5 222.904C494.2 222.805 494.9 222.805 495.6 222.805C504.8 222.805 513.2 228.843 517.4 236.761C524.5 250.124 520.2 266.257 514.8 279.322C508.1 295.258 497.3 309.214 485.8 321.982C483.8 324.16 481.8 326.337 479.7 328.515C454.3 312.579 424.9 292.189 419.4 260.912C417.4 250.322 420 238.84 429.6 232.703Z" fill="#FF83A0" fill-opacity="0.56"/>
<path d="M601.6 188.163C598.7 193.112 599.8 199.15 602.2 204.099C605.6 211.126 611.6 216.471 618.1 220.529C624.3 224.488 631.1 227.259 638 229.932C638.2 230.031 638.3 230.031 638.5 230.031C638.7 230.031 638.8 230.031 638.9 229.932C639.2 229.833 639.4 229.734 639.6 229.437C643.9 222.805 647.8 215.877 650.5 208.454C653 201.327 654.6 193.013 652.5 185.59C651.1 180.641 647.4 176.187 642.3 174.504C640.9 174.009 639.4 173.811 637.9 173.811C634.8 173.811 631.7 174.9 629.3 176.978C626.5 179.354 625.1 182.719 624.4 186.282C621.3 183.511 617.5 181.729 613.2 181.729C613 181.729 612.9 181.729 612.7 181.729C608.1 181.729 603.9 184.303 601.6 188.163ZM613.3 184.006C615.1 184.006 616.8 184.402 618.4 184.996C620.7 185.886 622.6 187.47 624.2 189.351C624.5 189.648 624.9 189.846 625.2 189.846C625.8 189.846 626.3 189.351 626.4 188.658C626.8 183.313 629.4 178.067 634.9 176.483C635.9 176.187 636.8 176.088 637.8 176.088C641.5 176.088 645.1 177.968 647.4 180.839C652 186.48 651.4 194.399 650.1 201.03C648.4 209.146 644.6 216.669 640.4 223.696C639.7 224.884 638.9 226.171 638.1 227.358C624.7 222.212 609 215.184 603.6 201.03C601.7 196.18 601.9 190.637 605.8 186.876C607.8 184.897 610.5 184.006 613.3 184.006Z" fill="#FF83A0" fill-opacity="0.56"/>
<path d="M231.6 131.151C221.4 135.011 213.9 143.92 211.9 154.51C209.3 167.773 216.8 180.74 225.9 189.846C239.1 203.01 256.9 210.235 274.9 214.491C292 218.45 309.6 219.539 327.1 220.133H327.2C328 220.133 328.6 219.836 329.1 219.44C329.7 219.044 330.1 218.45 330.3 217.659C334.6 199.347 338 180.74 338 161.934C338 143.92 334.9 123.926 324.2 108.881C317 98.8843 305.4 91.9558 292.8 91.9558C292.7 91.9558 292.6 91.9558 292.5 91.9558C281.3 92.0548 270.7 97.7955 265.1 107.594C260.7 115.216 260.1 123.926 261.4 132.339C256.1 130.162 250.4 128.875 244.7 128.875C240.3 128.776 235.9 129.568 231.6 131.151ZM247.1 134.418C252.9 134.814 258.6 136.694 263.7 139.564C264.3 139.861 264.9 140.059 265.4 140.059C267.2 140.059 268.7 138.377 268.1 136.199C264.8 123.926 266.4 110.168 277.4 102.25C281.9 99.0822 287.1 97.5976 292.5 97.5976C298.3 97.5976 304.1 99.2802 309 102.349C323.8 111.455 328.9 129.766 331.1 145.8C333.8 165.299 331.2 185.194 327.3 204.395C326.6 207.761 325.9 211.027 325.1 214.293C290.8 213.105 250 209.641 226.4 181.927C218.4 172.524 214.2 159.756 220.1 148.275C224.8 139.07 235.3 134.319 245.3 134.319C245.9 134.418 246.5 134.418 247.1 134.418Z" fill="#FF83A0" fill-opacity="0.56"/>
<path d="M589.1 93.6385C589.5 93.6385 589.9 93.5395 590.2 93.2425C590.6 93.0446 590.9 92.6487 591 92.1538C594.5 80.8702 597.4 69.3887 598.2 57.6102C599 46.3267 597.9 33.6574 591.9 23.8586C587.8 17.227 580.7 12.377 572.8 11.9811C572.4 11.9811 572 11.9811 571.6 11.9811C565 11.9811 558.7 15.1485 555 20.5923C551.9 25.1453 551.2 30.5891 551.7 35.9339C548 34.0534 543.9 32.9646 539.8 32.9646C537.6 32.9646 535.3 33.2615 533.1 33.9544C526.5 35.9339 521.5 41.2788 519.8 47.8114C517.6 56.0266 521.7 64.4398 527.1 70.4775C534.8 79.2866 545.6 84.5324 556.7 87.8977C567.2 91.164 578.2 92.4507 589.1 93.5395C589 93.6384 589.1 93.6385 589.1 93.6385ZM527.6 65.6275C523 59.3919 520.9 51.2756 525.1 44.2481C528.2 39.1013 534.2 36.5278 540.1 36.5278C540.9 36.5278 541.8 36.6268 542.6 36.7258C546.2 37.2207 549.7 38.6064 552.8 40.6849C553.2 40.9818 553.6 41.0808 554 41.0808C555.1 41.0808 556 40.091 555.7 38.8043C554.2 30.985 555.8 22.4729 563 17.9198C565.6 16.3362 568.5 15.6433 571.4 15.6433C575.4 15.6433 579.5 17.029 582.8 19.3055C591.6 25.6402 594 37.3197 594.8 47.4155C595.6 59.7878 593.2 72.0611 589.9 83.9385C589.3 86.0171 588.7 87.9967 588.1 90.0752C566.6 87.7987 541.2 83.9386 527.6 65.6275Z" fill="#FF83A0" fill-opacity="0.56"/>
<path d="M170.2 285.261C181.6 290.309 193.8 293.278 206 295.951C206.2 295.951 206.3 296.05 206.5 296.05C206.9 296.05 207.2 295.951 207.5 295.753C207.9 295.555 208.3 295.258 208.6 294.664C214.1 282.391 218.9 269.82 221.4 256.656C223.8 244.086 224.3 229.635 218.8 217.758C215.1 209.74 207.7 203.307 198.9 201.723C197.5 201.525 196.2 201.327 194.8 201.327C188.3 201.327 182 204 177.7 209.047C173.6 213.798 172 219.836 171.9 225.874C167.1 222.706 161.6 220.826 155.8 220.826C154.3 220.826 152.7 220.925 151.1 221.222C143.4 222.607 137 227.853 134.2 234.98C130.6 243.987 134.1 253.984 139.3 261.506C146.8 272.592 158.2 279.916 170.2 285.261ZM140.7 231.813C144.3 227.161 150.2 224.983 156 224.983C157.9 224.983 159.7 225.181 161.5 225.676C165.5 226.666 169.3 228.744 172.4 231.516C172.9 231.912 173.4 232.109 173.9 232.109C175 232.109 176 231.12 175.9 229.734C175.2 220.727 178.2 211.225 187 207.167C189.4 206.078 192 205.484 194.5 205.484C199.8 205.484 205.2 207.662 209.1 211.324C218.2 219.638 219.3 233.099 218.8 244.581C218.1 258.636 213.6 272.196 208.3 285.063C207.4 287.34 206.4 289.517 205.4 291.695C181.6 286.35 153.5 278.629 140.6 256.161C136.3 248.54 135 239.038 140.7 231.813Z" fill="#FF83A0" fill-opacity="0.56"/>
<path d="M468.5 105.318C474.9 98.2904 478.1 88.3926 475.9 79.0886C473.9 70.8734 467.8 64.0439 459.5 61.5694C457.1 60.8765 454.8 60.5796 452.4 60.5796C448.3 60.5796 444.2 61.5694 440.3 63.0541C441.7 55.4327 440.6 47.6134 436.1 40.8829C431.6 34.2513 424 30.2922 416 30.2922C415.7 30.2922 415.5 30.2922 415.2 30.2922C404.8 30.5891 396.3 38.3094 391 46.5246C383.3 58.501 380.9 72.754 380.7 86.71C380.6 99.9731 382.8 113.137 385.3 126.103C385.4 126.697 385.7 127.192 386.2 127.489C386.6 127.885 387.1 128.083 387.7 128.083C388.5 128.083 389.3 128.083 390.1 128.083C403.8 128.083 417.5 127.291 430.9 124.322C444.5 121.451 459 115.81 468.5 105.318ZM391 123.827C390.4 123.827 389.9 123.827 389.3 123.827C384.4 98.3894 380.1 67.7061 397 45.6338C401.8 39.3982 408.7 34.7462 416.5 34.7462C418.1 34.7462 419.7 34.9442 421.3 35.3401C429.4 37.3196 435 45.04 436.3 52.9582C437 57.3133 436.5 61.8663 435.2 66.0234C434.7 67.7061 435.8 68.9928 437.2 68.9928C437.6 68.9928 438 68.8938 438.5 68.6959C442.8 66.4194 447.7 65.0336 452.4 65.0336C457.1 65.0336 461.7 66.4193 465.6 69.7846C472.2 75.5254 473.7 85.1263 470.9 93.0446C466.6 105.417 453.6 112.345 441.9 116.601C427.7 121.847 412.3 123.332 397.2 123.629C395.1 123.827 393.1 123.827 391 123.827Z" fill="#FF83A0" fill-opacity="0.56"/>
<path d="M486.7 133.329C484.4 146.097 487.3 158.964 492 170.743C496.5 181.927 502.9 192.32 509.6 202.416C509.9 202.911 510.3 203.208 510.8 203.307C511 203.406 511.3 203.406 511.5 203.406C511.8 203.406 512 203.406 512.3 203.208C524.6 198.358 536.6 192.815 547.5 185.293C557.9 178.166 568.2 168.367 572.6 156.391C575.6 148.275 574.8 138.872 569.7 131.745C565.6 126.004 558.9 122.441 551.8 122.441C551.1 122.441 550.5 122.441 549.8 122.54C543.7 123.134 538.4 126.202 534.1 130.359C532.6 123.431 529 117.195 522.8 113.038C519.1 110.564 514.8 109.277 510.5 109.277C507.4 109.277 504.4 109.871 501.5 111.158C492.8 115.216 488.3 124.52 486.7 133.329ZM508.4 113.533C509.1 113.434 509.9 113.335 510.6 113.335C517.4 113.335 523.7 117.591 527.2 123.233C529.3 126.697 530.5 130.656 530.8 134.615C530.9 135.902 531.8 136.595 532.8 136.595C533.4 136.595 534 136.298 534.5 135.704C539 130.458 545.3 126.499 552 126.499C553.9 126.499 555.8 126.796 557.7 127.489C565.3 130.063 569.8 137.684 570.3 145.404C570.9 157.381 562.4 167.575 554.1 175.197C543.9 184.501 531.4 190.934 518.8 196.378C516.6 197.368 514.4 198.259 512.2 199.15C499.2 179.255 484.9 154.906 491.5 130.557C493.7 122.243 499.4 114.82 508.4 113.533Z" fill="#FF83A0" fill-opacity="0.56"/>
<path d="M268.8 294.763C269.2 286.251 273.2 277.937 281.6 274.769C283.4 274.076 285.3 273.779 287.1 273.779C292.6 273.779 298 276.452 301.8 280.312C304.6 283.182 306.5 286.845 307.7 290.606C308 291.596 308.8 292.189 309.7 292.189C310.4 292.189 311.1 291.794 311.6 291.002C315.4 283.875 322 278.036 330.3 278.036C331 278.036 331.7 278.036 332.5 278.134C340.4 279.124 346.4 285.558 348.4 292.882C351.5 304.364 345.4 316.043 338.9 325.149C331 336.235 320.2 345.143 309.1 352.962C307.2 354.348 305.2 355.635 303.3 357.02C286.5 340.491 267.5 319.705 268.8 294.763Z" fill="#FF83A0" fill-opacity="0.56"/>
<path d="M394.7 171.139C392.6 167.773 388.8 165.695 384.9 165.695C379.9 165.695 375.7 169.258 373.1 173.118C369.2 178.76 367.8 185.491 367.5 192.221C367.2 198.556 368.1 204.89 369 211.126C369 211.324 369.2 211.522 369.3 211.72L369.5 211.918C369.7 212.017 369.9 212.116 370.1 212.116C372.1 212.215 374.1 212.215 376.1 212.215C381 212.215 386 211.918 390.8 211.027C397.3 209.839 404.4 207.365 409.1 202.515C412.3 199.249 414 194.597 413.1 190.143C412.3 186.183 409.5 182.818 405.6 181.531C404.3 181.136 403.1 180.938 401.8 180.938C400 180.938 398.1 181.333 396.4 181.927C397.1 178.166 396.8 174.405 394.7 171.139ZM401.7 182.917C404.1 182.917 406.4 183.61 408.3 185.392C411.4 188.262 411.9 192.914 410.4 196.576C408.1 202.416 401.8 205.484 396.2 207.365C389.8 209.542 383 210.037 376.2 210.037C375.7 210.037 375.2 210.037 374.7 210.037C373.4 210.037 372.2 209.938 370.9 209.938C369 197.665 367.4 182.917 375.9 172.722C378.2 169.852 381.5 167.773 385.1 167.773C385.9 167.773 386.8 167.872 387.7 168.169C391.6 169.258 394.1 173.019 394.6 176.78C394.9 178.859 394.6 181.037 393.9 183.016C393.6 183.808 394.1 184.501 394.8 184.501C395 184.501 395.2 184.501 395.4 184.402C397.3 183.511 399.5 182.917 401.7 182.917Z" fill="#FF83A0" fill-opacity="0.56"/>
<path d="M46.7 132.24C40.5 135.605 36.5 141.94 36.1 148.868C35.6 157.579 41.5 165.2 48.1 170.248C57.7 177.572 69.6 180.641 81.5 181.828C85.2 182.224 88.9 182.323 92.6 182.323C100.1 182.323 107.7 181.729 115.2 180.938C115.7 180.839 116.1 180.641 116.4 180.344C116.7 180.047 117 179.651 117 179.156C118.2 167.08 118.7 155.005 117.1 142.93C115.6 131.448 111.9 118.977 103.7 110.267C98.9 105.219 92.2 101.953 85.2 101.953C84.2 101.953 83.1 102.052 82 102.151C74.9 103.14 68.6 107.792 65.9 114.424C63.8 119.67 64.1 125.213 65.7 130.458C63.2 129.766 60.7 129.469 58.1 129.469C54.3 129.37 50.4 130.261 46.7 132.24ZM67.9 134.912C68.2 135.011 68.5 135.11 68.8 135.11C70.1 135.11 71 133.824 70.4 132.438C67.2 124.916 67.1 115.909 73.4 109.97C76.6 106.902 80.9 105.516 85.2 105.516C88.1 105.516 91 106.11 93.6 107.297C103.8 111.85 108.6 123.134 111.4 133.131C114.8 145.305 114.9 158.271 114 170.842C113.9 173.019 113.7 175.197 113.5 177.374C106.6 178.067 99.2 178.661 91.9 178.661C75.9 178.661 59.7 175.89 47.8 165.2C41.9 159.855 38.1 152.135 40.9 144.216C43.2 137.585 50.1 133.527 56.9 133.032C57.4 133.032 57.9 132.933 58.4 132.933C61.7 133.032 64.9 133.725 67.9 134.912Z" fill="#FF83A0" fill-opacity="0.56"/>
<path d="M11 69.7846C9.1 70.6754 7.69999 72.457 7.39999 74.5356C6.99999 77.109 8.6 79.5835 10.5 81.2661C13.2 83.7406 16.7 84.9283 20.2 85.6212C22.9 86.1161 25.7 86.2151 28.5 86.2151C29.1 86.2151 29.8 86.2151 30.4 86.2151C30.5 86.2151 30.6 86.1161 30.7 86.1161H30.9C31 86.0171 31 85.9181 31.1 85.8191C31.8 82.2559 32.2 78.5937 32.1 74.9315C31.9 71.4672 31.1 67.6071 28.9 64.7367C27.5 62.9551 25.3 61.7674 23 61.7674C22.9 61.7674 22.7 61.7674 22.6 61.7674C20.4 61.8663 18.4 63.153 17.5 65.0336C16.7 66.5183 16.7 68.2009 17 69.8836C16 69.4877 15.1 69.3887 14.1 69.3887C12.9 69.1907 11.9 69.3887 11 69.7846ZM14 70.2795C15.1 70.2795 16.3 70.5765 17.3 71.1703C17.4 71.2693 17.5 71.2693 17.6 71.2693C18 71.2693 18.3 70.9724 18.1 70.4775C17.3 68.102 17.5 65.4295 19.6 63.8459C20.5 63.153 21.6 62.7571 22.8 62.7571C23.8 62.7571 24.9 63.0541 25.8 63.549C28.7 65.1326 29.9 68.6958 30.5 71.7642C31.2 75.5254 30.9 79.3855 30.3 83.1467C30.2 83.8396 30.1 84.4334 30 85.1263C29.5 85.1263 28.9 85.1263 28.4 85.1263C22.1 85.1263 15 84.5324 10.6 79.7815C9.00001 77.9999 8.00001 75.6243 9.10001 73.3478C9.70001 71.3683 11.9 70.2795 14 70.2795Z" fill="#FF83A0" fill-opacity="0.56"/>
<path d="M165.5 155.104C165.4 155.104 165.2 155.104 165.1 155.104C164.5 155.104 163.8 155.302 163.3 155.599C163.3 154.708 163.1 153.817 162.5 153.125C162 152.531 161.2 152.234 160.4 152.234C160.2 152.234 160.1 152.234 159.9 152.234C158.7 152.432 157.8 153.422 157.4 154.51C156.7 155.995 156.7 157.678 156.9 159.36C157.1 160.944 157.6 162.429 158.1 163.814L158.2 163.913H158.4C160.1 163.715 161.7 163.319 163.3 162.725C164.8 162.132 166.4 161.241 167.3 159.855C167.9 158.964 168.1 157.777 167.7 156.688C167.4 155.995 166.5 155.302 165.5 155.104ZM167.4 158.568C167.1 160.053 165.7 161.043 164.4 161.736C162.8 162.627 161.1 163.022 159.3 163.319C159 163.319 158.7 163.418 158.4 163.418C157.4 160.548 156.4 157.084 158 154.213C158.5 153.322 159.3 152.63 160.4 152.63C160.5 152.63 160.6 152.63 160.6 152.63C161.6 152.729 162.3 153.52 162.6 154.411C162.8 154.906 162.8 155.401 162.7 155.995C162.7 156.193 162.8 156.292 163 156.292C163.1 156.292 163.1 156.292 163.2 156.193C163.8 155.797 164.4 155.5 165.1 155.5C165.5 155.5 165.9 155.599 166.3 155.896C167.2 156.49 167.6 157.579 167.4 158.568Z" fill="#FF83A0" fill-opacity="0.56"/>
</svg>
